<svg xmlns="http://www.w3.org/2000/svg" width="183" height="267" viewBox="0 0 183 267" xmlns:xlink="http://www.w3.org/1999/xlink">
  <defs>
    <radialGradient id="c" cy="0%" r="74.672%" fx="50%" fy="0%">
      <stop stop-color="#F8FB61" offset="0%"/>
      <stop stop-color="#B10200" offset="100%"/>
    </radialGradient>
    <path id="b" d="M60.6300845,195.249185 C51.5986472,172.350436 40.7499457,151.250657 46.1742964,125.946168 C50.385105,106.06298 60.6300845,87.9818105 69.6767673,70.4982652 L71.4818351,66.2813584 C60.0263625,83.7649038 37.740483,99.4281358 31.7124102,119.317422 C23.2724985,147.03375 39.4845688,169.825781 56.3491466,189.708969 L60.6300845,195.249185 Z M114.873592,62.0705499 C106.430631,42.1843129 95.892938,25.3441279 88.0628465,4.85111976 L85.9437213,0 C88.9623313,13.8612133 94.9812568,24.7007675 94.9812568,39.1718011 C94.9812568,52.4231942 91.3772194,65.0769635 85.9437213,76.529387 C73.8875758,101.839975 59.4287387,125.946168 63.6486945,154.269267 C67.8656012,186.202502 79.2814355,194.401535 97.3626047,219.105352 L99.2042617,221.160446 C76.9061858,190.419409 87.7548873,176.567343 103.41507,142.216171 C115.175453,116.436021 126.319917,89.7868784 114.873592,62.0705499 Z M25.6843374,177.762591 C16.4882487,162.864683 14.2380121,141.008727 20.2599867,123.534329 L20.8576105,121.12249 C11.2224512,140.411103 -3.24248413,156.074335 2.18186662,178.973084 C11.2224512,218.748607 81.1169944,223.566187 96.7893737,259.731574 L97.9602285,261 C86.5139032,231.463358 43.1587355,206.091788 25.6843374,177.762591 Z M108.238748,197.654926 C110.653636,166.926086 137.16557,146.433077 143.193642,117.503207 C149.221715,92.7993902 131.143595,66.2813584 119.084401,45.7944485 L117.285431,43.3887078 C125.978418,58.9787614 129.32938,66.8881295 131.744268,80.752392 C133.549336,94.0098833 131.143595,107.864998 128.128034,120.515719 C122.700634,144.021239 104.628612,166.926086 104.021841,191.020082 C104.021841,203.079277 103.387628,204.622122 107.607584,214.87015 L108.84247,217.538114 C107.631977,207.896856 107.631977,207.896856 108.238748,197.654926 Z M175.129927,101.839975 C172.120464,80.752392 157.893359,74.5932079 145.57499,59.7471349 L140.778754,54.228262 C151.624407,71.1111345 163.079879,89.1862054 159.463646,110.874461 C155.246739,133.779308 142.288059,148.558301 130.234963,167.840816 L128.128034,171.139943 C145.602432,149.445589 179.950556,133.779308 175.129927,101.839975 L175.129927,101.839975 Z"/>
    <filter id="a" width="200%" height="200%" x="-50%" y="-50%" filterUnits="objectBoundingBox">
      <feOffset dx="3" dy="3" in="SourceAlpha" result="shadowOffsetOuter1"/>
      <feGaussianBlur stdDeviation="2" in="shadowOffsetOuter1" result="shadowBlurOuter1"/>
      <feColorMatrix values="0 0 0 0 0 0 0 0 0 0 0 0 0 0 0 0 0 0 0.679857337 0" in="shadowBlurOuter1"/>
    </filter>
  </defs>
  <g fill="none" fill-rule="evenodd">
    <use fill="black" filter="url(#a)" xlink:href="#b"/>
    <use fill="url(#c)" xlink:href="#b"/>
  </g>
</svg>
