<svg xmlns="http://www.w3.org/2000/svg" width="175" height="261" viewBox="0 0 175 261">
  <defs>
    <radialGradient id="a" cy="0%" r="74.672%" fx="50%" fy="0%">
      <stop stop-color="#F8FB61" offset="0%"/>
      <stop stop-color="#B10200" offset="100%"/>
    </radialGradient>
  </defs>
  <path fill="url(#a)" fill-rule="evenodd" d="M59.6300845,195.249185 C50.5986472,172.350436 39.7499457,151.250657 45.1742964,125.946168 C49.385105,106.06298 59.6300845,87.9818105 68.6767673,70.4982652 L70.4818351,66.2813584 C59.0263625,83.7649038 36.740483,99.4281358 30.7124102,119.317422 C22.2724985,147.03375 38.4845688,169.825781 55.3491466,189.708969 L59.6300845,195.249185 Z M113.873592,62.0705499 C105.430631,42.1843129 94.892938,25.3441279 87.0628465,4.85111976 L84.9437213,0 C87.9623313,13.8612133 93.9812568,24.7007675 93.9812568,39.1718011 C93.9812568,52.4231942 90.3772194,65.0769635 84.9437213,76.529387 C72.8875758,101.839975 58.4287387,125.946168 62.6486945,154.269267 C66.8656012,186.202502 78.2814355,194.401535 96.3626047,219.105352 L98.2042617,221.160446 C75.9061858,190.419409 86.7548873,176.567343 102.41507,142.216171 C114.175453,116.436021 125.319917,89.7868784 113.873592,62.0705499 Z M24.6843374,177.762591 C15.4882487,162.864683 13.2380121,141.008727 19.2599867,123.534329 L19.8576105,121.12249 C10.2224512,140.411103 -4.24248413,156.074335 1.18186662,178.973084 C10.2224512,218.748607 80.1169944,223.566187 95.7893737,259.731574 L96.9602285,261 C85.5139032,231.463358 42.1587355,206.091788 24.6843374,177.762591 Z M107.238748,197.654926 C109.653636,166.926086 136.16557,146.433077 142.193642,117.503207 C148.221715,92.7993902 130.143595,66.2813584 118.084401,45.7944485 L116.285431,43.3887078 C124.978418,58.9787614 128.32938,66.8881295 130.744268,80.752392 C132.549336,94.0098833 130.143595,107.864998 127.128034,120.515719 C121.700634,144.021239 103.628612,166.926086 103.021841,191.020082 C103.021841,203.079277 102.387628,204.622122 106.607584,214.87015 L107.84247,217.538114 C106.631977,207.896856 106.631977,207.896856 107.238748,197.654926 Z M174.129927,101.839975 C171.120464,80.752392 156.893359,74.5932079 144.57499,59.7471349 L139.778754,54.228262 C150.624407,71.1111345 162.079879,89.1862054 158.463646,110.874461 C154.246739,133.779308 141.288059,148.558301 129.234963,167.840816 L127.128034,171.139943 C144.602432,149.445589 178.950556,133.779308 174.129927,101.839975 L174.129927,101.839975 Z"/>
</svg>
