<?xml version="1.0" standalone="no"?>
<!DOCTYPE svg PUBLIC "-//W3C//DTD SVG 20010904//EN"
 "http://www.w3.org/TR/2001/REC-SVG-20010904/DTD/svg10.dtd">
<svg version="1.0" xmlns="http://www.w3.org/2000/svg"
 width="534.000000pt" height="534.000000pt" viewBox="0 0 534.000000 534.000000"
 preserveAspectRatio="xMidYMid meet">
<metadata>
Created by potrace 1.11, written by Peter Selinger 2001-2013
</metadata>
<g transform="translate(0.000000,534.000000) scale(0.100000,-0.100000)"
fill="#000000" stroke="none">
<path d="M2570 5299 c0 -15 43 -166 88 -306 11 -35 18 -63 15 -63 -3 0 -1 -6
5 -12 11 -14 37 -126 49 -209 13 -89 7 -317 -11 -414 -40 -214 -91 -350 -271
-720 -269 -552 -339 -780 -340 -1105 0 -174 9 -267 40 -407 3 -13 7 -33 10
-44 22 -100 74 -247 120 -339 20 -39 33 -76 29 -82 -4 -7 -3 -8 4 -4 7 4 18
-7 28 -26 9 -18 31 -53 48 -78 17 -25 29 -46 28 -47 -2 -3 30 -43 56 -69 7 -8
10 -14 6 -14 -4 0 0 -6 11 -13 11 -9 15 -19 10 -27 -5 -8 -4 -11 2 -7 11 7 49
-42 45 -56 -1 -5 2 -6 7 -3 5 4 19 -10 31 -29 12 -19 26 -35 32 -35 6 0 7 -8
4 -17 -4 -10 -4 -14 0 -11 6 7 34 -15 34 -27 0 -3 13 -20 29 -38 24 -25 28
-34 18 -46 -10 -12 -9 -13 1 -7 15 9 45 -12 36 -25 -3 -5 2 -9 10 -9 8 0 17
-8 21 -19 3 -10 16 -27 28 -37 l22 -19 -18 22 c-11 13 -16 27 -11 35 4 7 4 10
-1 6 -11 -11 -58 60 -51 78 3 7 0 13 -6 11 -16 -3 -68 93 -60 111 4 11 1 13
-8 7 -8 -5 -11 -4 -6 3 3 6 15 9 26 7 11 -2 20 0 20 5 0 5 -13 8 -30 6 -16 -2
-27 0 -25 5 3 4 0 11 -6 14 -5 4 -8 13 -5 20 3 8 -1 19 -9 25 -7 6 -12 22 -10
36 1 14 -5 33 -14 42 -15 15 -15 15 2 9 13 -5 17 -3 14 5 -2 7 -9 12 -14 11
-5 -1 -10 8 -10 20 -2 17 0 19 7 7 7 -11 10 -8 10 14 0 26 -2 27 -17 15 -16
-13 -17 -12 -5 3 8 10 23 15 40 12 22 -3 24 -2 10 6 -9 6 -15 17 -12 24 3 8 1
17 -4 20 -5 3 -8 -5 -7 -17 2 -16 -2 -23 -16 -23 -11 0 -19 4 -19 8 0 4 7 8
15 8 21 0 19 9 -7 39 -13 14 -15 19 -5 12 21 -16 22 -2 3 24 -12 17 -12 21 6
34 19 13 20 15 4 26 -15 11 -15 13 -1 19 8 3 15 12 15 21 0 8 4 15 8 15 4 0 8
9 9 20 1 13 -2 18 -10 13 -7 -4 -6 0 2 10 11 14 11 20 1 32 -9 10 -9 15 -1 15
6 0 11 -5 11 -11 0 -5 5 -7 12 -3 6 4 8 3 4 -4 -5 -8 21 -10 32 -2 1 2 6 3 11
4 5 0 12 4 16 8 9 9 -16 5 -32 -5 -18 -11 -16 8 2 23 8 7 15 18 15 24 0 6 -5
4 -11 -4 -9 -12 -10 -11 -6 6 2 12 -1 31 -8 44 -11 20 -10 28 6 54 14 23 15
33 7 44 -6 7 -7 12 -2 10 5 -1 20 4 33 11 17 9 20 16 12 24 -16 16 -14 23 14
35 25 12 25 13 10 43 -9 17 -14 33 -12 36 3 2 8 -5 12 -16 3 -12 11 -19 16
-15 5 3 6 11 2 17 -4 7 6 3 22 -7 22 -14 27 -15 17 -4 -11 14 -11 18 0 25 7 4
21 18 31 30 15 17 16 26 8 42 -7 13 -8 22 -1 26 5 3 10 1 10 -4 0 -6 4 -11 9
-11 6 0 8 9 6 20 -2 11 0 21 6 21 5 1 13 2 18 3 5 0 12 4 16 7 3 4 -12 5 -34
4 -31 -2 -40 1 -44 16 -3 11 -1 16 4 13 5 -3 11 1 14 8 3 8 16 14 28 15 20 2
19 0 -5 -13 -16 -8 -28 -20 -28 -26 0 -7 4 -7 13 1 8 6 18 7 22 3 5 -4 5 -1 1
6 -4 6 -3 12 1 12 5 0 18 7 29 15 19 15 19 15 -1 8 -18 -6 -18 -5 -6 10 7 9
18 14 24 10 6 -3 7 -1 3 6 -4 6 -11 9 -16 6 -15 -9 -8 54 7 67 12 10 11 14 -7
28 -21 16 -21 17 -3 31 16 13 17 13 4 -3 -16 -21 1 -24 18 -4 10 11 8 17 -6
25 -10 6 -13 11 -7 11 16 0 36 -25 27 -34 -4 -4 1 -4 12 -1 18 6 18 6 2 -5 -9
-6 -14 -16 -11 -22 4 -6 3 -8 -3 -5 -5 3 -10 0 -10 -8 0 -23 11 -18 31 16 11
19 23 28 32 25 9 -4 12 -1 9 5 -4 6 -13 8 -21 5 -16 -6 -44 19 -44 40 0 9 -5
12 -12 8 -7 -4 -8 -3 -4 5 9 14 26 5 26 -15 0 -8 3 -14 8 -15 4 0 17 -2 29 -3
17 -2 20 0 12 10 -7 8 -6 14 3 17 7 3 3 4 -8 4 -15 -1 -20 -6 -17 -17 4 -13 4
-13 -6 0 -7 11 -6 21 5 38 15 23 15 24 -5 17 -13 -4 -21 -2 -21 5 0 6 4 9 9 5
5 -3 17 5 25 17 13 18 18 20 28 9 11 -11 10 -12 -1 -6 -10 6 -12 4 -6 -5 5 -9
4 -11 -3 -6 -7 4 -12 3 -12 -2 0 -11 30 -25 38 -17 3 3 0 5 -7 5 -7 0 -9 5 -6
10 5 8 12 7 23 -2 14 -11 14 -9 0 8 -23 26 -23 41 -1 23 9 -8 14 -9 10 -3 -4
7 0 14 8 17 8 4 12 15 10 28 -3 13 3 31 12 41 16 18 16 18 0 12 -9 -3 -17 -3
-17 0 0 4 10 10 22 15 l22 8 -22 5 c-12 3 -20 3 -19 -1 1 -3 -1 -7 -5 -8 -18
-6 -20 -2 -7 14 12 15 12 16 -3 10 -10 -3 -18 -2 -18 4 0 6 8 9 18 7 9 -1 24
2 32 7 13 7 13 6 2 -7 -11 -14 -10 -16 5 -13 10 2 23 4 28 5 6 0 2 5 -7 11
-16 9 -17 13 -3 38 8 16 11 31 8 35 -4 3 0 6 7 6 7 0 19 8 26 18 23 29 15 32
-12 5 -24 -24 -27 -25 -36 -8 -8 12 -7 20 3 26 23 15 34 10 13 -6 -10 -8 -14
-15 -9 -15 17 0 35 22 35 44 0 12 -4 17 -8 11 -4 -5 -12 -11 -19 -12 -15 -3
-25 25 -11 33 7 4 8 3 4 -4 -4 -7 -1 -12 9 -12 11 0 15 6 10 19 -4 13 3 25 22
40 21 15 24 20 11 21 -9 0 -20 5 -24 11 -4 7 0 9 14 5 15 -5 20 -3 18 9 -1 9
-9 21 -17 26 -11 7 -11 9 -1 9 8 0 10 5 6 13 -5 8 -2 8 9 -2 9 -7 17 -10 17
-7 0 4 9 2 21 -4 19 -11 20 -10 9 9 -6 12 -13 21 -16 21 -3 0 -2 -4 1 -10 3
-6 -1 -7 -9 -4 -19 7 -20 16 -4 32 9 9 9 12 -2 12 -9 0 -7 5 5 14 11 8 23 12
27 10 4 -2 9 0 13 6 4 6 11 7 17 4 7 -4 8 -2 4 5 -6 9 -11 9 -22 0 -10 -8 -14
-8 -14 0 0 6 -6 10 -12 9 -7 -2 -14 8 -15 22 l-2 25 8 -25 c9 -24 12 -24 15 2
0 6 8 13 16 15 9 3 11 1 5 -4 -16 -13 -16 -33 0 -27 8 4 13 10 10 14 -3 5 4
15 15 23 17 12 18 16 6 20 -9 4 -12 14 -9 26 3 12 10 18 16 14 6 -3 7 -1 3 5
-4 7 -1 12 6 12 9 0 9 3 -2 10 -13 9 -13 11 0 20 16 11 15 11 -17 15 -13 1
-23 -2 -23 -7 0 -6 7 -8 14 -5 11 4 13 1 9 -10 -5 -14 -9 -13 -25 7 -10 12
-18 27 -18 34 0 7 3 7 8 1 13 -18 32 -15 32 4 0 11 -8 22 -17 24 -15 4 -15 5
2 6 17 1 18 3 5 12 -12 8 -12 10 -1 7 8 -2 15 -12 17 -23 3 -22 34 -56 34 -37
0 7 -5 12 -11 12 -6 0 -9 6 -6 13 3 7 -1 21 -9 31 -7 11 -11 22 -9 27 3 4 1
10 -5 14 -5 3 -10 -1 -10 -9 0 -9 -4 -16 -8 -16 -4 0 -8 9 -8 19 0 11 3 19 6
19 18 -1 21 4 10 17 -11 13 -10 14 3 9 13 -4 15 -1 12 17 -3 12 -10 26 -17 31
-7 4 -8 8 -3 8 12 0 43 -20 31 -20 -5 0 -2 -8 5 -17 12 -15 12 -16 -1 -8 -8 4
-12 5 -8 0 4 -4 3 -17 -3 -28 -8 -13 -8 -17 -1 -13 7 4 9 -1 7 -13 -2 -11 4
-25 13 -33 9 -7 14 -8 10 -4 -4 5 -3 15 4 23 6 7 8 16 4 20 -3 3 -6 1 -6 -6 0
-7 -5 -9 -10 -6 -8 5 -7 12 2 23 10 12 10 14 1 8 -7 -4 -13 -2 -13 3 0 6 5 11
11 11 6 0 9 7 6 15 -4 8 -2 17 4 20 5 4 7 11 3 16 -3 5 -10 7 -15 4 -5 -4 -12
1 -15 9 -3 9 -11 13 -18 9 -6 -3 -3 3 7 14 17 20 17 22 1 31 -10 5 -12 12 -6
16 5 3 12 -1 16 -9 6 -16 36 -10 36 7 0 6 -6 5 -15 -2 -13 -10 -15 -9 -15 8 0
14 5 20 14 16 8 -3 17 -1 20 4 3 5 -2 9 -12 8 -18 -1 -19 6 -6 38 5 14 3 17
-7 14 -8 -3 -13 -14 -11 -24 2 -18 2 -18 -8 -1 -9 13 -7 24 10 46 21 30 10 56
-13 32 -9 -9 -7 -10 8 -5 18 6 17 4 -4 -19 -29 -32 -28 -31 -28 -12 0 8 3 12
7 10 4 -2 7 14 8 37 1 22 8 48 14 56 8 10 9 13 2 9 -15 -9 -25 18 -12 31 7 7
6 16 -2 29 -11 17 -11 17 -6 0 3 -11 3 -24 -1 -30 -11 -17 -10 -31 2 -40 6 -5
4 -7 -5 -4 -8 2 -15 8 -15 13 0 5 -4 15 -9 23 -6 10 -5 12 2 7 8 -5 12 4 12
28 0 19 6 37 13 40 6 2 1 4 -13 3 -13 -1 -25 3 -25 8 0 6 -3 15 -7 21 -10 15
0 24 20 18 14 -5 14 -4 -1 6 -9 6 -22 8 -29 4 -6 -4 -8 -3 -4 4 3 6 2 13 -4
17 -6 4 -8 10 -5 15 3 5 1 11 -4 14 -5 3 -7 14 -4 25 3 11 -2 21 -11 24 -12 5
-14 12 -6 31 8 21 5 28 -16 43 -14 10 -26 28 -27 41 -1 12 -5 22 -10 22 -4 0
-5 5 -2 10 3 6 1 10 -5 10 -6 0 -8 5 -4 11 12 19 28 -11 33 -63 1 -4 11 -12
24 -18 20 -10 21 -10 4 3 -10 8 -20 28 -23 43 -6 31 -31 64 -48 64 -6 0 -4 -5
4 -11 10 -7 11 -9 2 -7 -8 2 -13 8 -13 13 0 6 -8 18 -16 28 -9 9 -13 17 -8 17
4 0 1 8 -6 17 -10 11 -10 14 -1 9 6 -4 12 -3 12 1 0 5 -9 14 -20 21 -12 7 -17
18 -13 29 5 12 3 14 -7 8 -8 -5 -11 -4 -6 3 3 6 -1 17 -9 25 -8 9 -12 23 -9
31 4 11 0 16 -11 16 -16 0 -16 2 -1 24 10 15 12 27 6 31 -9 6 -14 -1 -11 -17
0 -4 -6 -5 -14 -1 -11 4 -13 9 -5 18 5 6 7 15 3 18 -3 4 0 7 8 7 14 1 -18 24
-33 25 -4 0 -14 9 -22 20 -11 15 -12 23 -3 34 10 12 9 14 -6 8 -11 -4 -16 -3
-12 3 3 6 1 10 -5 10 -6 0 -8 5 -5 10 5 8 11 8 20 0 10 -8 15 -8 21 1 4 7 3 9
-3 6 -6 -4 -16 0 -22 7 -14 17 2 31 22 20 9 -5 9 -4 0 6 -10 11 -15 11 -27 0
-9 -7 -13 -17 -9 -24 4 -6 -1 -5 -9 2 -10 8 -14 20 -11 29 5 12 3 14 -7 8 -8
-5 -11 -4 -6 3 3 6 1 14 -5 17 -6 4 -8 19 -5 34 5 20 4 22 -4 11 -8 -13 -11
-13 -19 -1 -5 8 -7 21 -3 29 3 9 1 13 -5 9 -12 -8 -26 20 -18 33 3 5 1 11 -5
15 -6 4 -7 11 -4 17 4 7 2 8 -5 4 -7 -5 -17 6 -27 31 -9 21 -32 71 -50 111
-19 41 -31 79 -28 84 4 6 3 8 -3 5 -5 -3 -15 11 -22 31 -7 20 -19 52 -27 70
-9 18 -21 47 -29 65 -8 17 -14 25 -15 16z m376 -755 c2 -12 -1 -13 -12 -3 -7
6 -11 16 -8 21 7 11 17 3 20 -18z m199 -413 c3 -5 1 -12 -5 -16 -5 -3 -10 1
-10 9 0 18 6 21 15 7z m109 -505 c-10 -8 -21 -12 -24 -10 -5 6 21 24 34 24 6
0 1 -6 -10 -14z m-4 -343 c7 7 5 0 -5 -16 -14 -22 -15 -30 -5 -42 12 -14 9
-18 -7 -12 -5 1 -7 5 -6 9 1 3 -4 12 -12 18 -8 7 -15 18 -15 24 0 6 4 4 10 -4
17 -27 22 -2 5 27 l-17 28 20 -22 c15 -17 22 -19 32 -10z m-40 -64 c0 -5 -4
-9 -8 -9 -5 0 -9 7 -9 15 0 8 4 12 9 9 4 -3 8 -9 8 -15z m-30 -79 c0 -5 -5
-10 -11 -10 -5 0 -7 5 -4 10 3 6 8 10 11 10 2 0 4 -4 4 -10z m-50 -160 c0 -5
-5 -10 -11 -10 -5 0 -7 5 -4 10 3 6 8 10 11 10 2 0 4 -4 4 -10z m-27 -163 c7
3 3 -3 -7 -15 -11 -12 -15 -22 -10 -22 5 0 1 -5 -9 -11 -14 -8 -22 -8 -30 1
-9 8 -8 10 3 5 9 -3 20 3 28 15 13 22 3 27 -16 8 -7 -7 -12 -9 -12 -5 0 4 8
15 18 25 12 13 18 14 20 5 2 -7 9 -10 15 -6z m-54 -126 c7 -5 10 -14 7 -20 -4
-6 -12 -9 -17 -6 -5 4 -9 1 -9 -4 0 -6 6 -11 13 -11 18 0 18 -28 0 -34 -9 -4
-13 0 -11 12 2 11 -3 16 -15 15 -17 -1 -17 1 3 22 16 17 18 24 8 28 -7 3 -8 6
-3 6 6 0 16 -3 24 -8z m-53 -29 c-17 -16 -18 -16 -5 5 7 12 15 20 18 17 3 -2
-3 -12 -13 -22z m-1 -43 c-4 -5 -12 -9 -18 -8 -9 0 -8 2 1 6 6 2 9 10 6 15 -4
7 -2 8 5 4 6 -4 9 -12 6 -17z m28 6 c-3 -9 -8 -14 -10 -11 -3 3 -2 9 2 15 9
16 15 13 8 -4z m-113 -210 c0 -2 -9 -3 -19 -2 -11 0 -18 5 -15 9 4 6 34 0 34
-7z m-20 -25 c0 -5 -5 -10 -11 -10 -5 0 -7 5 -4 10 3 6 8 10 11 10 2 0 4 -4 4
-10z m-8 -34 c3 5 4 4 2 -2 -1 -6 3 -17 9 -23 6 -6 9 -11 7 -12 -58 -9 -56
-10 -37 5 12 9 14 16 8 21 -6 3 -11 12 -11 18 0 8 3 7 9 -2 5 -7 11 -9 13 -5z
m-67 -126 c-3 -5 -12 -10 -18 -10 -7 0 -6 4 3 10 19 12 23 12 15 0z m42 -4 c0
-8 -6 -12 -13 -9 -19 7 -26 -14 -13 -38 10 -19 7 -26 -21 -53 l-32 -31 16 32
c20 40 20 44 1 36 -9 -3 -14 -8 -11 -11 7 -7 -13 -42 -24 -42 -6 0 -10 5 -10
11 0 5 5 7 10 4 9 -6 14 8 11 28 -1 4 6 10 14 13 8 3 12 11 8 18 -4 6 1 5 10
-3 10 -8 17 -9 17 -3 0 6 -5 14 -11 18 -7 4 0 14 18 25 15 10 28 19 29 19 0 0
1 -6 1 -14z m-147 -241 c0 -2 -6 -5 -13 -8 -8 -3 -14 1 -14 8 0 7 6 11 14 8 7
-3 13 -6 13 -8z m-49 -68 c-10 -9 -11 -8 -5 6 3 10 9 15 12 12 3 -3 0 -11 -7
-18z m-3 -94 c0 -10 1 -25 3 -33 3 -10 -2 -14 -16 -12 -27 5 -39 18 -24 27 8
5 10 4 5 -3 -4 -7 -1 -12 8 -12 19 0 20 11 4 29 -10 11 -10 13 0 7 6 -4 12 -2
12 3 0 6 2 11 4 11 3 0 4 -8 4 -17z m-55 -138 c-7 -21 -12 -19 -10 4 0 11 5
18 9 15 4 -3 5 -11 1 -19z"/>
<path d="M2695 5080 c-3 -5 -1 -10 4 -10 6 0 11 5 11 10 0 6 -2 10 -4 10 -3 0
-8 -4 -11 -10z"/>
<path d="M2706 5042 c-3 -5 1 -9 9 -9 8 0 12 4 9 9 -3 4 -7 8 -9 8 -2 0 -6 -4
-9 -8z"/>
<path d="M2720 4985 c0 -2 6 -8 13 -14 10 -8 14 -7 14 2 0 8 -6 14 -14 14 -7
0 -13 -1 -13 -2z"/>
<path d="M2775 4960 c-3 -5 -1 -10 4 -10 6 0 11 5 11 10 0 6 -2 10 -4 10 -3 0
-8 -4 -11 -10z"/>
<path d="M2775 4920 c6 -10 4 -12 -11 -6 -15 6 -17 5 -6 -5 9 -9 15 -10 23 -2
8 8 7 13 -2 18 -8 6 -10 4 -4 -5z"/>
<path d="M2815 4881 c-3 -5 -2 -12 3 -15 5 -3 9 1 9 9 0 17 -3 19 -12 6z"/>
<path d="M2795 4840 c-3 -5 -1 -10 4 -10 6 0 11 5 11 10 0 6 -2 10 -4 10 -3 0
-8 -4 -11 -10z"/>
<path d="M2866 4742 c-3 -5 1 -9 9 -9 8 0 15 4 15 9 0 4 -4 8 -9 8 -6 0 -12
-4 -15 -8z"/>
<path d="M2909 4608 c15 -21 31 -23 31 -6 0 6 -3 8 -7 5 -3 -4 -13 -1 -22 6
-14 11 -14 10 -2 -5z"/>
<path d="M2990 4491 c0 -6 4 -13 10 -16 6 -3 7 1 4 9 -7 18 -14 21 -14 7z"/>
<path d="M2998 4443 c7 -3 16 -2 19 1 4 3 -2 6 -13 5 -11 0 -14 -3 -6 -6z"/>
<path d="M3223 4405 c60 -101 181 -374 191 -431 3 -13 7 -28 11 -33 6 -11 43
-173 53 -236 11 -76 5 -330 -12 -445 -50 -337 -102 -502 -286 -910 -153 -338
-202 -472 -239 -650 -16 -79 -19 -128 -17 -290 2 -173 5 -202 25 -260 25 -72
59 -150 66 -150 4 0 -3 47 -10 68 -2 6 0 12 6 12 6 0 7 5 2 13 -11 17 -10 268
1 257 13 -13 15 -63 3 -78 -5 -7 -7 -15 -3 -19 3 -3 6 -1 6 5 0 6 7 9 16 5 15
-5 15 -7 1 -15 -10 -5 -14 -16 -11 -26 5 -15 4 -15 -6 -2 -10 13 -11 13 -7 0
2 -8 10 -15 17 -15 7 0 16 -9 21 -20 6 -16 8 -17 8 -3 1 9 -3 20 -9 23 -5 3
-10 11 -10 17 0 6 7 5 18 -3 15 -12 16 -12 6 1 -14 19 -14 50 0 50 6 1 0 7
-14 15 -15 9 -19 14 -10 15 13 0 13 1 0 10 -8 5 -12 10 -7 11 13 3 27 6 32 9
3 1 9 3 14 4 5 0 13 5 18 10 5 6 2 6 -6 1 -11 -6 -13 -4 -8 11 5 14 2 12 -13
-6 -12 -15 -20 -20 -20 -11 0 8 8 24 18 35 16 20 16 20 0 7 -11 -8 -18 -9 -18
-3 0 6 5 14 10 17 6 4 8 10 5 15 -3 5 3 13 12 19 10 6 12 11 6 11 -7 0 -13 8
-13 18 0 15 2 15 11 2 9 -13 10 -12 5 2 -3 10 2 21 11 26 14 8 13 12 -9 26
-14 9 -31 15 -39 13 -8 -2 -11 -2 -6 0 12 8 8 25 -5 18 -7 -4 -2 3 11 14 21
19 20 26 -2 22 -5 -1 -6 3 -2 9 3 6 10 8 14 6 4 -3 17 2 29 10 23 16 31 64 11
64 -8 0 -8 4 0 14 9 11 10 20 1 38 -10 21 -10 21 3 5 15 -18 32 -24 22 -7 -3
6 -2 10 4 10 5 0 9 -9 8 -19 0 -11 -4 -18 -7 -16 -13 8 -4 -45 10 -57 13 -11
13 -11 3 1 -18 20 -16 36 1 22 10 -8 16 -9 21 -1 4 6 3 9 -2 8 -8 -3 -13 5
-13 23 0 5 6 7 13 3 7 -5 7 -1 -2 10 -12 14 -12 19 -2 26 8 5 9 10 3 14 -6 3
-13 0 -15 -6 -4 -10 -6 -10 -6 -1 -1 7 -8 10 -16 7 -8 -4 -15 -1 -15 6 0 6 4
9 9 6 17 -11 18 19 2 32 -14 11 -13 12 5 3 14 -7 24 -7 31 0 8 8 13 7 18 -1 4
-6 2 -17 -4 -23 -8 -8 -11 -8 -11 2 0 7 -4 9 -10 6 -16 -10 -11 -21 10 -22 11
-1 20 2 20 7 0 5 7 16 16 24 9 9 11 16 4 16 -6 0 -8 5 -5 10 4 6 10 8 15 5 5
-3 12 0 16 6 4 8 3 9 -4 5 -8 -5 -11 0 -9 15 2 13 10 25 17 27 7 3 10 0 6 -7
-5 -7 -1 -9 10 -4 14 5 13 8 -6 18 l-23 12 21 18 c11 10 18 24 15 31 -3 9 2
12 16 9 12 -2 19 0 16 6 -4 5 -11 7 -16 4 -5 -4 -9 -2 -9 3 0 19 14 21 33 5
19 -17 19 -17 6 4 -13 21 -49 28 -49 9 0 -5 -2 -7 -5 -4 -10 10 18 58 34 58
12 0 9 6 -9 20 -15 13 -18 18 -7 14 14 -5 16 -2 11 12 -4 11 -4 16 0 12 4 -3
8 -13 10 -21 1 -8 8 -23 16 -33 13 -16 13 -17 0 -9 -12 7 -13 6 -3 -7 7 -8 10
-18 6 -22 -4 -4 1 -4 11 0 12 5 14 9 6 14 -9 5 -9 9 -1 14 17 11 13 29 -4 22
-9 -3 -15 0 -15 10 0 10 6 14 14 11 8 -3 17 1 20 9 3 9 11 12 17 8 7 -4 9 -3
5 4 -3 6 -2 14 4 17 8 5 7 12 -2 23 -11 13 -11 14 8 4 17 -9 21 -8 21 4 0 8
-6 13 -14 10 -7 -3 -13 -1 -13 3 0 15 27 20 40 8 9 -8 8 -5 -1 10 -9 16 -16
19 -21 10 -5 -7 -8 -8 -8 -1 0 6 3 14 7 18 11 10 12 36 2 36 -5 0 -9 5 -9 11
0 8 6 7 17 -2 15 -12 16 -12 10 4 -5 12 -3 16 5 11 8 -5 9 -2 5 10 -4 10 -3
15 4 11 5 -4 15 -2 22 3 7 5 20 8 30 7 10 -2 14 1 10 8 -4 7 0 8 11 4 11 -4
15 -3 11 4 -4 6 -13 8 -20 5 -20 -7 -16 53 4 64 9 5 15 12 15 17 -2 11 18 37
36 48 12 7 13 6 4 -6 -5 -8 -9 -20 -8 -26 1 -7 2 -19 3 -25 1 -9 4 -9 10 2 6
8 8 17 5 21 -2 4 0 10 5 14 6 3 8 12 4 20 -3 8 0 15 5 15 6 0 10 8 9 18 -1 22
-24 25 -32 4 -4 -10 0 -12 12 -8 15 5 15 4 -1 -9 -26 -20 -35 -19 -33 4 0 11
4 18 8 15 4 -2 9 3 13 11 3 8 0 15 -6 15 -6 0 -8 3 -5 6 4 4 13 2 20 -4 14
-12 27 -7 27 10 0 5 -4 7 -9 4 -10 -6 -25 24 -16 32 3 3 5 0 5 -6 0 -6 9 -14
21 -17 16 -5 18 -10 8 -21 -8 -10 -8 -14 0 -14 6 0 11 4 11 10 0 5 8 7 18 3
12 -4 11 -1 -4 11 -16 11 -21 24 -19 48 4 49 4 50 15 43 6 -3 10 0 10 8 0 25
29 28 41 5 9 -16 8 -19 -3 -15 -7 2 -12 10 -10 16 1 7 -2 10 -8 6 -6 -3 -8
-10 -5 -15 3 -5 -4 -11 -15 -15 -19 -6 -28 -25 -12 -25 5 0 9 -7 9 -15 0 -8
-4 -12 -9 -9 -4 3 -8 3 -8 0 0 -3 9 -10 21 -16 19 -11 20 -10 10 9 -9 16 -8
22 6 30 11 6 13 11 5 11 -7 0 -10 5 -7 10 4 6 11 8 16 5 18 -12 30 5 18 26 -7
14 -7 24 0 33 6 7 8 16 4 20 -4 4 0 4 10 0 10 -3 17 -1 17 6 0 6 -4 8 -10 5
-5 -3 -10 -1 -10 5 0 6 -5 8 -11 5 -6 -4 -8 -13 -5 -21 3 -9 -1 -11 -12 -8
-15 5 -15 4 -2 -6 13 -10 12 -11 -3 -6 -10 3 -21 6 -24 6 -3 0 7 10 23 22 16
13 35 22 44 20 10 -2 8 2 -5 12 -24 18 -39 21 -29 4 4 -7 3 -8 -5 -4 -15 10
-3 29 15 22 8 -3 14 -1 14 3 0 5 -6 11 -12 14 -7 3 -3 4 9 4 16 -1 19 -5 13
-17 -6 -12 -3 -16 13 -17 12 0 16 1 10 4 -7 3 -13 9 -13 14 0 4 6 6 14 3 8 -3
17 -1 21 5 3 7 0 8 -9 5 -10 -4 -13 0 -11 13 2 10 4 20 4 23 1 3 6 -2 12 -10
9 -13 10 -13 6 1 -3 9 0 22 6 28 8 8 8 14 0 22 -8 8 -13 7 -18 -2 -5 -8 -4
-10 3 -5 7 4 12 2 12 -4 0 -7 -7 -10 -14 -7 -10 4 -13 1 -10 -7 3 -8 0 -17 -5
-21 -6 -3 -9 -11 -6 -16 3 -5 -1 -6 -9 -3 -9 3 -16 10 -16 16 0 5 5 6 11 2 7
-4 10 -1 7 7 -3 8 1 22 10 31 12 15 12 20 2 33 -11 13 -9 19 9 38 25 27 28 46
4 26 -15 -13 -15 -12 -2 9 19 30 25 28 25 -7 0 -17 -3 -28 -7 -25 -13 8 -1
-39 13 -50 7 -6 9 -7 5 -2 -4 5 1 19 10 30 10 12 11 15 3 9 -19 -17 -35 -17
-21 0 6 8 8 17 4 20 -3 4 2 7 12 7 18 0 18 0 0 13 -12 10 -14 16 -7 21 7 4 12
2 12 -3 0 -6 5 -11 12 -11 6 0 3 9 -7 20 -14 16 -16 23 -7 32 9 9 12 8 12 -4
0 -9 4 -20 10 -23 7 -4 7 3 0 20 -11 29 -5 49 12 39 7 -5 8 -2 2 7 -5 8 -9 17
-9 22 0 4 -3 7 -7 7 -5 0 -13 0 -18 0 -6 0 -8 -13 -5 -29 3 -17 1 -32 -4 -36
-14 -8 -24 14 -13 28 7 8 6 18 -4 31 -8 11 -14 25 -14 30 0 6 5 3 11 -6 10
-17 39 -14 39 4 0 6 -7 7 -16 4 -8 -3 -12 -2 -9 4 3 6 2 10 -3 10 -12 0 -12
32 1 48 6 8 5 12 -4 12 -10 1 -8 4 4 11 9 5 17 15 17 21 0 6 -7 5 -17 -3 -15
-11 -16 -11 -5 1 14 16 16 34 4 26 -5 -3 -9 1 -9 9 0 10 4 12 12 5 7 -5 15 -7
19 -3 4 4 4 0 1 -9 -4 -9 -2 -19 4 -23 6 -3 11 -11 11 -16 0 -6 -6 -7 -12 -3
-9 5 -9 2 1 -9 13 -17 12 -18 -11 -21 -6 0 -13 -7 -16 -14 -3 -10 2 -10 21 -1
19 9 25 18 23 38 -1 14 2 33 8 41 9 13 9 13 -6 2 -15 -12 -17 -11 -15 7 1 12
6 21 12 21 5 0 3 5 -5 10 -8 5 -19 10 -25 10 -5 0 -3 -5 5 -10 8 -5 10 -10 4
-10 -6 0 -18 8 -25 17 -10 11 -10 14 -1 9 8 -5 12 0 12 14 0 12 5 18 10 15 6
-4 7 -11 4 -17 -5 -7 -2 -8 5 -3 9 5 9 11 3 17 -6 6 -8 17 -5 24 3 8 0 14 -6
14 -6 0 -10 -5 -8 -11 1 -6 -4 -14 -10 -16 -21 -8 -14 15 9 31 26 19 16 21
-15 4 -20 -10 -21 -10 -8 5 13 16 8 22 -14 17 -5 -1 -4 4 3 11 14 15 16 33 3
25 -5 -4 -8 2 -6 11 1 10 -2 24 -8 31 -13 16 10 35 31 27 7 -3 10 0 7 6 -4 6
-13 8 -21 5 -8 -3 -14 -1 -14 5 0 6 -4 7 -10 4 -5 -3 -10 -2 -10 3 0 6 7 13
16 16 10 4 13 2 8 -6 -4 -7 -3 -8 4 -4 21 13 13 27 -13 22 -14 -3 -23 -1 -20
5 4 5 3 15 -2 22 -9 15 -14 36 -14 60 0 10 -5 15 -11 11 -7 -5 -8 -2 -4 5 5 7
0 21 -10 32 -9 10 -14 22 -11 26 4 3 1 13 -5 21 -7 8 -13 19 -14 26 -5 29 -10
42 -27 60 -9 11 -16 25 -14 30 2 6 -7 26 -20 45 -13 18 -23 42 -23 52 0 11 -4
19 -9 19 -5 0 -15 16 -22 35 -7 19 -16 35 -20 35 -8 0 -24 40 -21 53 1 4 -3 7
-9 7 -5 0 -8 4 -5 9 3 5 -1 11 -9 15 -8 3 -15 10 -15 17 0 6 -9 22 -20 36 -11
14 -17 29 -14 34 3 5 1 9 -3 9 -12 0 -44 56 -36 64 3 3 2 6 -4 6 -6 0 -31 36
-57 80 -26 43 -56 90 -67 102 -16 18 -15 14 4 -17z m553 -1370 c-1 -8 -5 -17
-8 -21 -5 -4 -4 16 1 34 3 9 9 -1 7 -13z m-35 -72 c13 -17 13 -17 -6 -3 -11 8
-22 16 -24 17 -2 2 0 3 6 3 6 0 17 -8 24 -17z m-51 -120 c0 -5 -10 -19 -21
-33 l-21 -25 18 33 c18 32 24 38 24 25z m-60 -142 c0 -6 -4 -12 -8 -15 -5 -3
-9 1 -9 9 0 8 4 15 9 15 4 0 8 -4 8 -9z m-10 -56 c0 -2 -6 -5 -13 -8 -8 -3
-14 1 -14 8 0 7 6 11 14 8 7 -3 13 -6 13 -8z m-50 -85 c0 -5 -2 -10 -4 -10 -3
0 -8 5 -11 10 -3 6 -1 10 4 10 6 0 11 -4 11 -10z m-78 -127 c-6 -2 -9 -10 -6
-15 4 -7 2 -8 -5 -4 -13 9 -5 26 12 25 9 0 8 -2 -1 -6z m-22 -33 c0 -5 -5 -10
-11 -10 -5 0 -7 5 -4 10 3 6 8 10 11 10 2 0 4 -4 4 -10z m-23 -74 c-3 -7 0
-20 6 -27 10 -11 9 -11 -5 -1 -13 10 -17 10 -21 0 -2 -7 -8 -9 -13 -5 -5 5 -1
13 9 18 9 6 15 14 12 20 -4 5 -1 9 5 9 7 0 10 -6 7 -14z m-86 -133 c-12 -20
-14 -14 -5 12 4 9 9 14 11 11 3 -2 0 -13 -6 -23z m-20 -46 c-9 -12 -8 -16 5
-21 15 -6 15 -8 -1 -26 -10 -11 -23 -20 -29 -20 -6 0 -4 5 4 10 13 8 13 10 -2
10 -9 0 -19 -6 -21 -12 -4 -10 -6 -10 -6 0 -1 8 8 16 18 19 11 3 20 12 20 21
2 44 5 52 14 43 7 -7 6 -15 -2 -24z m-34 -6 c0 -11 -5 -18 -9 -15 -4 3 -5 11
-1 19 7 21 12 19 10 -4z m-69 -136 c-3 -3 -9 2 -12 12 -6 14 -5 15 5 6 7 -7
10 -15 7 -18z m-8 -25 c0 -5 -4 -10 -10 -10 -5 0 -10 5 -10 10 0 6 5 10 10 10
6 0 10 -4 10 -10z m10 -35 c-10 -12 -10 -15 1 -15 8 0 7 -4 -5 -13 -9 -7 -19
-21 -20 -32 -2 -11 -9 -19 -15 -17 -6 1 -11 -2 -11 -8 0 -5 6 -10 13 -10 8 0
7 -4 -3 -10 -8 -5 -11 -10 -6 -10 5 0 3 -6 -3 -13 -6 -8 -7 -18 -3 -23 4 -4 0
-3 -9 4 -9 7 -23 11 -30 9 -8 -2 -10 -2 -6 1 4 2 2 11 -5 20 -11 13 -10 14 9
4 14 -8 24 -9 28 -2 3 5 -2 10 -12 11 -16 0 -16 1 2 9 11 5 16 9 10 9 -5 1 1
8 14 18 l24 16 -22 18 c-21 17 -21 18 -2 16 11 0 17 -5 14 -10 -3 -5 0 -8 8
-5 8 3 15 10 15 16 1 7 2 17 3 22 0 6 6 10 12 10 8 0 8 -5 -1 -15z m-54 -47
c4 -7 4 -10 -1 -6 -4 4 -14 0 -22 -10 -13 -15 -13 -15 -3 6 12 25 16 27 26 10z
m-95 -244 c11 -14 10 -18 -6 -30 -10 -8 -24 -14 -29 -13 -6 0 -6 3 1 5 7 3 9
13 6 22 -4 14 -3 15 6 2 5 -8 14 -11 18 -6 4 4 -1 14 -11 22 -11 8 -15 14 -9
14 6 0 17 -7 24 -16z m-1 -155 c0 -4 -8 -14 -17 -21 -22 -16 -31 -54 -11 -42
10 6 10 4 -1 -9 -7 -9 -10 -17 -6 -17 4 0 2 -6 -4 -14 -6 -8 -11 -18 -10 -22
1 -5 1 -18 0 -29 -2 -18 -4 -17 -13 5 -12 25 -18 91 -8 85 3 -2 12 4 20 13 13
14 12 15 -3 9 -9 -3 -19 -1 -23 5 -4 7 -3 8 4 4 7 -4 12 -2 12 4 0 6 5 8 10 5
17 -11 11 7 -7 21 -15 12 -16 13 -2 8 10 -3 20 -1 23 5 7 11 36 4 36 -10z"/>
<path d="M3056 1501 c-4 -5 -2 -12 3 -15 5 -4 12 -2 15 3 4 5 2 12 -3 15 -5 4
-12 2 -15 -3z"/>
<path d="M3029 1423 c0 -5 -2 -18 -5 -30 -2 -12 1 -25 8 -29 7 -4 8 -3 4 4 -4
7 -4 18 1 25 11 18 12 37 2 37 -5 0 -9 -3 -10 -7z"/>
<path d="M3016 4418 c3 -4 12 -8 20 -8 8 0 14 4 14 8 0 4 -9 8 -19 8 -11 0
-17 -4 -15 -8z"/>
<path d="M3050 4376 c0 -8 4 -17 8 -20 4 -2 8 4 8 15 0 10 -4 19 -8 19 -4 0
-8 -6 -8 -14z"/>
<path d="M3054 4314 c1 -8 9 -20 16 -27 8 -6 11 -8 7 -3 -4 5 -2 15 4 23 6 7
10 13 8 14 -31 6 -37 5 -35 -7z"/>
<path d="M3095 4280 c3 -5 8 -10 11 -10 2 0 4 5 4 10 0 6 -5 10 -11 10 -5 0
-7 -4 -4 -10z"/>
<path d="M3700 4185 c13 -22 45 -75 72 -117 26 -43 48 -81 48 -84 0 -3 9 -19
21 -35 11 -16 17 -29 14 -29 -4 0 1 -7 9 -16 9 -8 14 -19 11 -24 -3 -5 -2 -10
3 -12 10 -4 72 -135 72 -151 0 -7 4 -17 8 -23 13 -14 50 -141 67 -225 22 -116
14 -318 -19 -448 -61 -240 -150 -415 -413 -811 -79 -119 -139 -212 -168 -260
-5 -8 33 29 85 83 57 60 99 96 107 93 8 -3 11 -1 8 4 -3 5 3 17 14 27 11 10
40 38 65 62 26 24 43 36 40 26 -6 -15 -4 -16 14 -6 11 6 29 8 39 4 16 -6 16
-5 4 11 -8 9 -21 14 -30 11 -13 -5 -13 -4 -4 6 10 10 15 9 28 -1 10 -8 15 -9
15 -1 0 6 5 11 11 11 8 0 8 -5 -1 -15 -12 -14 -8 -17 16 -14 3 0 12 -8 20 -18
14 -17 14 -17 5 3 -13 28 -2 39 16 16 13 -16 13 -15 5 3 -4 11 -8 27 -7 35 1
8 -4 25 -12 37 -9 16 -10 24 -1 29 6 4 8 3 4 -4 -3 -6 -2 -13 3 -16 5 -4 11
-1 14 6 2 7 2 2 0 -12 -3 -14 -1 -22 3 -18 10 11 35 -12 27 -25 -3 -6 -1 -7 5
-3 9 5 8 13 -2 29 -13 19 -13 26 -1 47 8 14 14 19 15 12 0 -7 5 -10 10 -7 8 5
8 11 0 20 -8 10 -8 15 0 20 6 4 14 4 17 1 4 -3 1 -6 -6 -6 -7 0 -10 -4 -6 -10
3 -5 11 -7 19 -4 15 6 17 34 3 34 -6 0 -8 3 -4 6 3 3 20 -4 38 -17 18 -13 29
-18 25 -11 -7 11 6 17 29 12 6 -1 5 4 -2 11 -6 6 -9 18 -6 25 3 8 0 14 -7 14
-6 0 -8 -5 -4 -12 6 -10 5 -10 -8 -1 -8 7 -18 10 -21 6 -10 -9 -9 -25 1 -19 4
2 14 0 22 -6 12 -8 12 -9 -3 -4 -13 4 -16 2 -11 -7 6 -9 4 -9 -8 1 -17 13 -21
59 -7 68 5 3 6 -1 3 -9 -4 -11 3 -13 30 -12 29 2 34 0 31 -16 -2 -11 0 -17 5
-14 5 3 7 14 5 25 -4 19 4 24 35 21 13 -2 13 -1 0 8 -14 10 -13 12 9 15 5 0
13 5 18 9 4 5 2 7 -6 5 -19 -4 -27 30 -11 46 9 8 11 6 5 -11 -3 -13 -2 -23 3
-23 18 0 21 40 4 50 -10 5 -12 10 -5 10 6 0 14 -4 17 -8 3 -5 20 -9 38 -9 26
-1 29 1 13 7 -11 4 -23 6 -26 4 -11 -6 -31 24 -24 36 8 13 25 13 25 -1 0 -5
-5 -7 -11 -3 -7 4 -10 1 -7 -7 7 -21 31 -17 52 9 10 13 21 21 24 18 3 -3 -3
-16 -14 -28 l-19 -23 23 19 c12 11 21 25 18 32 -3 7 8 27 24 43 27 30 28 44 1
19 -11 -11 -12 -9 -6 11 4 15 3 21 -3 17 -5 -3 -16 2 -23 12 -12 15 -12 16 2
4 13 -10 19 -10 28 2 6 8 10 19 9 26 -2 7 2 14 9 17 7 2 11 -4 10 -16 -1 -12
-5 -21 -10 -21 -4 0 -5 -5 -1 -12 5 -7 3 -8 -6 -3 -8 5 -11 4 -7 -3 9 -14 31
-10 50 10 14 14 14 17 2 22 -8 3 -15 11 -15 17 0 9 3 9 14 0 10 -9 17 -7 27 6
13 16 12 17 -3 5 -10 -8 -19 -9 -22 -3 -5 8 23 24 46 26 3 0 10 3 13 7 4 4 -5
5 -21 2 l-28 -5 19 22 c11 12 14 19 8 15 -8 -4 -13 -1 -13 9 0 9 -5 13 -10 10
-6 -4 -8 -10 -6 -14 3 -4 -4 -7 -14 -8 -11 -1 -22 2 -25 8 -3 5 1 6 10 3 10
-4 14 -1 12 7 -2 8 -2 10 1 6 5 -10 42 22 42 37 0 6 -5 5 -12 -2 -7 -7 -16
-12 -21 -12 -5 0 1 9 14 20 22 18 15 30 -7 13 -5 -5 -1 0 9 10 11 9 24 17 31
17 7 0 7 -3 1 -8 -12 -8 -15 -62 -3 -62 4 0 8 7 8 16 0 9 5 12 13 8 8 -5 7 -2
-2 10 -10 12 -11 20 -3 28 6 6 8 18 4 27 -5 14 -3 14 10 3 11 -9 18 -10 23 -2
4 6 3 10 -2 9 -20 -4 -27 2 -13 12 12 9 12 10 -3 5 -12 -4 -17 -2 -14 6 2 7
10 12 16 10 8 -1 9 2 5 10 -11 18 -12 48 -2 54 4 3 6 10 2 15 -10 17 -23 -1
-18 -26 2 -13 0 -27 -6 -30 -6 -4 -8 -10 -5 -15 3 -5 1 -11 -5 -15 -5 -3 -10
-11 -10 -16 0 -6 4 -8 8 -5 4 2 8 -4 8 -15 0 -10 -1 -19 -3 -19 -7 0 -34 63
-29 68 3 3 6 0 6 -7 0 -7 5 -9 12 -5 7 5 5 11 -7 21 -11 7 -13 13 -6 13 7 0 9
5 5 13 -5 8 -2 8 9 -2 21 -17 22 -4 3 18 -10 11 -12 21 -6 31 7 11 10 12 10 2
0 -7 4 -11 9 -8 11 7 8 35 -5 44 -15 11 -13 60 2 66 15 6 15 -15 0 -25 -11 -9
11 -49 27 -48 9 0 9 2 0 6 -7 2 -13 14 -13 24 0 11 5 17 10 14 6 -4 7 -11 4
-17 -4 -6 2 -6 15 1 26 14 27 19 4 17 -19 -1 -25 25 -8 36 5 4 -7 6 -27 4 -21
-2 -35 0 -32 5 3 5 10 7 15 4 5 -4 9 -2 9 4 0 6 6 9 13 7 6 -1 8 -1 4 2 -4 2
-2 11 5 20 11 15 11 15 -3 5 -9 -7 -20 -9 -24 -5 -5 4 -5 2 -2 -4 3 -6 0 -11
-8 -11 -8 0 -13 3 -10 5 3 3 0 11 -5 17 -7 9 -3 12 17 11 15 -1 28 5 30 14 4
12 3 12 -5 1 -8 -10 -14 -11 -28 -1 -15 9 -16 10 -2 6 12 -4 15 -1 11 11 -5
11 -3 14 6 8 10 -6 11 -3 2 14 -7 12 -9 26 -6 31 3 6 -1 7 -10 4 -12 -5 -13
-9 -4 -21 9 -10 9 -17 2 -24 -8 -8 -13 -7 -18 2 -6 8 -4 10 5 4 8 -5 11 -3 8
6 -3 8 -12 13 -19 11 -8 -2 -11 0 -7 3 4 4 3 17 -3 28 -8 14 -8 18 0 13 16
-10 14 6 -5 32 -8 12 -12 22 -8 22 3 0 1 6 -5 14 -9 11 -9 16 0 22 8 5 9 3 4
-6 -5 -9 -4 -11 4 -6 6 4 9 12 5 17 -3 5 -9 7 -14 4 -5 -3 -11 -1 -15 5 -3 5
-1 10 5 10 6 0 8 5 5 10 -4 6 -11 8 -16 5 -5 -3 -6 1 -3 9 3 9 2 16 -4 16 -5
0 -13 7 -16 16 -4 10 -2 13 7 9 6 -4 1 3 -13 15 -14 12 -18 18 -10 14 8 -4 5
3 -7 15 -14 13 -20 27 -16 38 4 10 2 14 -5 9 -6 -3 -19 5 -29 19 -10 15 -37
46 -59 71 -23 24 -40 44 -37 44 2 0 -9 12 -26 26 -17 14 -29 30 -25 35 3 5 -4
9 -15 9 -12 0 -22 5 -22 10 -1 6 -2 14 -3 19 0 5 -5 13 -10 18 -5 5 -6 3 -2
-4 4 -7 3 -13 -2 -13 -5 0 -15 11 -22 25 -7 14 -15 23 -18 21 -6 -7 -107 96
-104 106 1 4 -1 7 -5 6 -8 -3 -53 37 -50 44 1 2 -25 30 -57 63 -56 57 -58 58
-36 20z m644 -1204 c3 -5 -1 -11 -9 -14 -9 -4 -12 -1 -8 9 6 16 10 17 17 5z
m-18 -146 c-14 -11 -16 -15 -5 -15 12 0 12 -2 -1 -10 -22 -14 -28 -12 -40 10
-7 14 -7 20 0 20 5 0 10 -7 10 -15 0 -8 5 -15 11 -15 5 0 8 4 4 9 -3 6 3 14
12 20 26 15 31 13 9 -4z m-65 -38 c-10 -9 -11 -8 -5 6 3 10 9 15 12 12 3 -3 0
-11 -7 -18z m-11 -37 c0 -5 -2 -10 -4 -10 -3 0 -8 5 -11 10 -3 6 -1 10 4 10 6
0 11 -4 11 -10z m53 -15 c-7 -21 -12 -19 -10 4 0 11 5 18 9 15 4 -3 5 -11 1
-19z m-77 -27 c5 -7 3 -8 -6 -3 -10 6 -12 4 -7 -8 3 -8 -1 -21 -9 -27 -10 -9
-14 -9 -14 -1 0 6 5 11 11 11 5 0 7 5 4 10 -6 9 1 30 10 30 2 0 7 -5 11 -12z
m16 -36 c-7 -2 -10 -7 -7 -11 2 -5 -9 -21 -25 -36 -17 -16 -30 -23 -30 -17 0
7 5 12 10 12 6 0 9 3 8 8 -5 12 36 60 47 54 5 -3 4 -7 -3 -10z m-65 -34 c-3
-7 -5 -2 -5 12 0 14 2 19 5 13 2 -7 2 -19 0 -25z m-47 -42 c0 -2 -7 -7 -16
-10 -8 -3 -12 -2 -9 4 6 10 25 14 25 6z m-47 -67 c-8 -8 -13 -7 -18 2 -6 8 -4
10 5 4 10 -6 12 -4 6 11 -6 15 -5 17 5 7 9 -10 10 -16 2 -24z m-21 -32 c-2
-11 2 -15 13 -11 8 3 13 10 10 14 -3 5 -1 11 4 14 21 13 20 -14 -1 -28 -30
-21 -41 -20 -35 4 3 10 1 21 -4 24 -5 2 -4 3 3 2 7 -2 12 -10 10 -19z m-35
-19 c-3 -8 -6 -5 -6 6 -1 11 2 17 5 13 3 -3 4 -12 1 -19z m-97 -72 c0 -2 -8
-10 -17 -17 -16 -13 -17 -12 -4 4 13 16 21 21 21 13z m-76 -105 c14 -27 14
-30 -7 -47 -16 -14 -19 -15 -9 -2 11 14 10 18 -5 26 -10 5 -25 7 -33 4 -16 -5
-15 -4 14 18 11 8 17 10 13 4 -4 -7 0 -14 8 -18 18 -6 19 -1 5 25 -6 10 -8 19
-6 19 3 0 12 -13 20 -29z"/>
<path d="M4209 2653 c-13 -16 -12 -17 4 -4 16 13 21 21 13 21 -2 0 -10 -8 -17
-17z"/>
<path d="M3156 4095 c-3 -8 -1 -15 4 -15 6 0 10 7 10 15 0 8 -2 15 -4 15 -2 0
-6 -7 -10 -15z"/>
<path d="M3193 4103 c4 -3 1 -13 -6 -22 -11 -14 -10 -14 5 -2 16 12 16 31 1
31 -4 0 -3 -3 0 -7z"/>
<path d="M3181 4046 c-9 -11 -8 -15 5 -20 21 -8 21 -8 28 10 6 15 4 15 -11 3
-15 -12 -16 -12 -10 4 8 21 3 22 -12 3z"/>
<path d="M3473 4034 c-3 -8 -2 -19 3 -24 5 -5 9 1 9 16 0 28 -3 30 -12 8z"/>
<path d="M3190 3996 c4 -4 16 -4 26 2 16 9 14 10 -8 9 -15 -1 -23 -6 -18 -11z"/>
<path d="M2221 3945 c-17 -24 -37 -50 -44 -57 -7 -7 -37 -42 -67 -78 -53 -63
-78 -90 -212 -235 -36 -38 -82 -90 -104 -115 -21 -25 -45 -51 -52 -59 -24 -26
-128 -166 -160 -216 -69 -111 -122 -251 -140 -374 -9 -58 -8 -285 0 -331 13
-68 36 -155 54 -205 22 -63 92 -211 117 -247 10 -16 15 -33 11 -39 -4 -7 -3
-9 4 -5 6 3 17 -6 24 -21 25 -49 42 -76 66 -102 12 -14 22 -29 22 -32 0 -3 9
-16 20 -29 11 -12 17 -27 14 -32 -3 -4 -2 -7 3 -6 4 2 9 1 9 -2 1 -3 20 -25
43 -50 22 -25 41 -51 41 -59 0 -8 3 -11 7 -8 3 4 17 -9 30 -28 13 -19 33 -45
46 -59 41 -45 48 -56 41 -68 -4 -6 -3 -8 4 -4 6 3 18 -4 26 -16 19 -27 32 -18
17 11 -31 61 -31 61 -19 61 7 0 5 5 -5 11 -14 8 -15 14 -6 30 6 12 8 23 5 27
-3 3 -6 0 -6 -6 0 -21 -16 -13 -28 14 -7 14 -8 23 -3 20 13 -9 23 25 11 39 -6
7 -6 15 0 23 6 7 7 10 4 7 -4 -3 -12 0 -19 5 -8 7 -12 5 -12 -5 0 -8 4 -12 8
-9 4 2 6 -5 4 -16 -2 -11 0 -18 6 -15 5 4 9 1 9 -5 0 -7 -5 -10 -11 -8 -6 2
-11 8 -11 13 0 6 -4 16 -10 23 -6 6 -7 12 -3 12 5 0 0 8 -9 19 -9 10 -16 22
-14 27 1 5 -3 19 -10 32 -7 12 -10 22 -6 22 3 0 1 6 -5 13 -6 8 -8 17 -4 20 3
4 1 7 -6 7 -7 0 -9 5 -6 10 4 6 -3 26 -14 45 -11 19 -17 35 -13 35 5 0 17 6
28 14 13 10 15 14 4 13 -8 -1 -15 3 -15 8 0 6 3 9 8 7 4 -1 7 2 7 7 0 6 -9 9
-19 8 -11 0 -17 -5 -15 -9 3 -4 0 -8 -5 -8 -10 0 -13 7 -10 26 0 4 -5 11 -13
16 -10 8 -10 9 2 5 8 -2 14 -9 13 -15 -2 -6 4 -9 13 -5 12 4 13 8 3 14 -7 4
-14 17 -16 29 -2 12 1 19 7 15 5 -3 10 -2 10 4 0 6 -12 9 -27 8 -15 -1 -28 3
-28 8 0 6 -4 15 -8 22 -4 6 -3 14 3 18 5 3 10 14 10 23 0 15 -2 15 -10 2 -7
-11 -9 -7 -7 15 1 18 -3 29 -10 28 -6 -1 -10 5 -8 15 1 9 -1 22 -5 27 -12 16
-8 40 9 55 8 8 17 14 18 13 9 -8 23 -1 17 8 -5 8 -9 8 -14 -1 -5 -8 -10 -9
-14 -2 -3 6 -2 13 4 17 5 3 10 12 10 18 0 9 -2 9 -8 0 -5 -8 -13 -8 -32 2 -14
8 -19 14 -12 15 6 0 12 5 12 11 0 5 -4 8 -8 5 -5 -3 -9 1 -9 9 0 11 4 12 13 4
7 -6 14 -6 18 -1 3 6 -1 12 -9 16 -8 3 -12 12 -9 21 5 11 2 14 -12 9 -15 -5
-16 -4 -5 4 16 11 27 57 12 48 -5 -3 -12 1 -15 9 -3 9 1 18 9 21 8 4 12 10 9
15 -3 5 -10 6 -16 3 -6 -4 -6 1 1 14 6 12 17 24 24 28 9 5 9 4 0 -7 -7 -7 -13
-18 -13 -24 0 -5 7 -2 14 8 8 10 17 14 20 9 3 -6 -1 -13 -10 -16 -8 -3 -13
-10 -9 -15 3 -6 -2 -14 -11 -19 -15 -8 -15 -10 2 -16 9 -4 22 -2 28 4 8 8 5 9
-9 4 -17 -7 -18 -5 -8 8 7 8 10 18 6 21 -12 13 13 7 27 -6 12 -10 12 -9 3 3
-6 8 -9 23 -8 32 2 10 -2 16 -7 15 -6 -1 -13 4 -15 11 -3 8 2 10 14 6 10 -3
14 -2 8 3 -13 10 -13 23 -1 42 6 10 5 12 -2 7 -7 -4 -12 -2 -12 3 0 6 8 11 17
11 15 0 14 2 -3 16 -19 15 -19 16 1 10 19 -6 19 -5 3 8 -10 7 -18 22 -18 32 0
16 -2 17 -10 4 -5 -8 -10 -10 -10 -5 0 6 5 16 12 23 16 16 -4 16 -22 0 -8 -7
-6 -3 4 10 23 27 36 28 31 2 -2 -11 5 -30 16 -42 l20 -23 -16 27 c-11 18 -13
28 -5 33 6 3 8 11 5 16 -4 5 0 9 7 9 10 0 9 3 -2 9 -8 6 -17 8 -21 5 -4 -2
-12 3 -19 11 -9 10 -9 15 -1 15 6 0 11 -4 11 -8 0 -10 46 -9 56 1 5 4 1 5 -9
1 -9 -3 -17 -3 -17 0 0 4 10 11 23 16 20 8 20 9 2 10 -17 0 -17 2 -5 10 9 6
10 10 3 10 -16 0 -12 38 5 45 7 3 10 10 6 17 -5 8 -1 9 12 5 16 -6 17 -5 4 5
-14 12 -16 20 -11 46 1 4 6 0 12 -8 8 -12 9 -9 4 10 -6 24 -5 24 9 6 9 -11 16
-15 16 -9 0 7 -7 19 -16 27 -8 9 -12 21 -8 27 4 8 9 7 15 -2 4 -7 11 -10 16
-6 11 11 -19 28 -32 18 -10 -9 -55 3 -55 14 0 4 5 3 10 0 17 -10 34 6 19 17
-11 8 -11 9 1 5 8 -2 14 -13 12 -23 -2 -18 -2 -18 11 -2 9 12 17 14 25 8 9 -7
9 -7 2 2 -14 17 -12 34 2 20 7 -7 19 -12 27 -11 9 0 5 5 -9 11 -24 10 -24 10
-5 18 11 5 14 9 8 9 -7 1 -12 7 -10 14 1 7 -8 11 -23 10 -14 -1 -19 1 -12 4
10 4 10 8 0 21 -10 14 -10 15 2 5 21 -19 35 -16 19 4 -10 11 -10 14 -1 9 6 -4
12 -2 12 3 0 6 5 11 11 11 6 0 7 -5 2 -12 -12 -21 -11 -32 3 -46 16 -15 18 -8
5 17 -7 13 -5 22 9 33 10 9 22 13 26 10 5 -4 3 0 -2 8 -17 23 -14 52 5 45 8
-3 12 -3 8 1 -4 4 0 12 9 18 13 10 13 12 -5 12 -11 0 -17 -5 -14 -11 4 -5 3
-7 -2 -3 -4 4 -14 3 -22 -4 -10 -8 -17 -8 -24 -1 -8 8 -7 13 2 18 8 5 10 4 5
-3 -4 -7 -3 -12 2 -12 17 0 22 13 9 28 -9 13 -9 14 1 8 8 -5 12 -1 13 11 0 14
2 13 9 -5 l10 -23 30 22 c33 25 37 31 16 23 -10 -4 -13 0 -11 13 2 10 4 20 4
23 1 3 5 -1 10 -8 6 -10 10 -10 21 3 11 13 10 15 -1 10 -10 -4 -15 2 -16 15
-2 17 1 18 17 10 10 -6 21 -6 24 -2 3 5 0 9 -7 10 -7 0 -20 2 -31 4 -12 2 -20
-4 -21 -15 -2 -10 1 -15 8 -11 7 3 4 -1 -7 -10 -10 -8 -15 -19 -12 -25 4 -5 2
-12 -4 -16 -6 -4 -8 -11 -5 -16 4 -5 2 -9 -3 -9 -5 0 -12 9 -15 19 -3 12 0 18
7 15 6 -2 12 3 13 13 3 41 22 85 34 77 5 -3 9 0 9 5 0 6 -6 11 -12 11 -7 1 -2
7 11 14 13 7 32 11 43 8 19 -5 25 12 8 23 -8 5 -7 11 1 21 6 7 15 11 20 8 5
-3 9 0 9 5 0 6 -5 11 -11 11 -5 0 -7 4 -4 10 3 6 -1 7 -10 4 -9 -4 -14 -13
-11 -21 3 -8 2 -11 -4 -8 -5 3 -7 -4 -5 -16 3 -15 0 -19 -10 -15 -7 2 -16 2
-18 -2 -2 -4 -3 -2 -1 4 1 6 -2 17 -7 23 -6 8 -5 8 3 1 15 -13 31 -13 23 0 -3
5 3 18 14 29 11 11 16 22 13 26 -4 3 1 3 11 -1 9 -3 17 -10 17 -15 0 -5 5 -9
11 -9 8 0 8 4 0 14 -7 9 -8 17 -2 20 5 3 12 0 15 -6 3 -7 3 -3 1 9 -3 12 -1
24 4 27 6 4 8 13 5 21 -4 9 0 12 14 8 11 -2 23 0 26 5 4 6 -3 8 -16 5 -18 -4
-15 1 12 20 19 14 39 22 44 19 5 -3 6 0 2 7 -5 8 -16 5 -37 -10 -17 -12 -33
-19 -36 -16 -3 3 4 11 15 18 l21 13 -21 18 c-12 10 -26 18 -32 17 -6 0 -6 -3
2 -6 19 -7 14 -23 -5 -17 -14 5 -15 4 -4 -4 8 -6 21 -7 30 -4 14 5 14 4 2 -12
-10 -12 -17 -14 -25 -6 -15 15 -29 12 -22 -6 3 -8 2 -12 -4 -9 -5 3 -7 -4 -4
-17 3 -13 7 -33 10 -45 5 -24 -10 -40 -21 -23 -4 6 -1 17 5 25 15 18 6 19 -21
4 -14 -7 7 41 71 166 86 166 114 225 106 225 -1 0 -17 -20 -35 -45z m-82 -311
c-6 -7 -8 -18 -5 -23 4 -5 1 -13 -6 -17 -7 -4 -10 -4 -6 1 4 4 3 16 -2 26 -7
12 -7 20 0 24 6 4 7 12 3 18 -4 7 1 6 10 -2 13 -10 14 -17 6 -27z m-77 -86
c-9 -15 -20 -28 -24 -28 -5 0 -2 10 7 23 8 13 13 26 10 29 -3 2 2 5 10 5 12 0
12 -5 -3 -29z m-62 -116 c0 -5 -7 -17 -15 -28 -14 -18 -14 -17 -4 9 12 27 19
34 19 19z m-58 -114 c-8 -8 -9 -4 -5 13 4 13 8 18 11 10 2 -7 -1 -18 -6 -23z
m-32 -99 c0 -8 5 -7 15 1 9 7 18 10 22 7 3 -4 -2 -9 -11 -13 -9 -3 -13 -10
-10 -15 3 -5 10 -6 16 -3 7 4 8 2 4 -4 -4 -6 -12 -9 -19 -6 -17 6 -40 44 -27
44 5 0 10 -5 10 -11z m-6 -111 c-19 -34 -27 -39 -35 -26 -12 18 -11 28 2 28 5
0 7 -4 4 -10 -3 -5 -2 -10 3 -10 6 0 12 7 16 15 3 8 8 15 11 15 4 0 3 -6 -1
-12z m-44 -103 c9 -11 9 -15 1 -15 -7 0 -10 -4 -6 -9 10 -17 -10 -20 -30 -4
-19 14 -19 14 -1 11 10 -2 21 3 24 11 3 8 0 11 -7 7 -6 -4 -11 -2 -11 3 0 16
16 13 30 -4z m-22 -66 c13 -23 13 -23 -2 -5 -9 11 -16 14 -16 8 0 -7 -5 -12
-11 -12 -8 0 -8 4 0 14 8 10 9 16 1 19 -6 3 -6 5 1 3 7 -1 19 -13 27 -27z m7
-28 c6 -1 3 -6 -5 -11 -9 -5 -15 -24 -15 -46 0 -45 -15 -53 -40 -22 -11 13
-13 17 -5 11 20 -18 35 -16 20 2 -10 12 -9 16 2 20 8 3 15 13 15 21 0 8 -6 13
-12 10 -6 -2 -12 1 -12 8 0 7 10 11 21 10 12 -1 26 -3 31 -3z m-60 -265 c-1
-22 -5 -49 -9 -58 -11 -24 -32 -29 -32 -8 0 12 5 16 16 12 12 -5 13 -3 3 9
-14 17 -13 61 1 71 6 4 4 13 -5 24 -13 16 -12 16 7 4 16 -10 20 -22 19 -54z
m2 -342 c0 -7 -5 -15 -12 -17 -6 -3 -11 3 -11 12 0 10 5 18 11 18 7 0 12 -6
12 -13z m58 -264 c3 -5 2 -10 -4 -10 -5 0 -13 5 -16 10 -3 6 -2 10 4 10 5 0
13 -4 16 -10z m30 -90 c3 -6 -1 -7 -9 -4 -18 7 -21 14 -7 14 6 0 13 -4 16 -10z"/>
<path d="M1765 2660 c-3 -5 -1 -10 4 -10 6 0 11 5 11 10 0 6 -2 10 -4 10 -3 0
-8 -4 -11 -10z"/>
<path d="M1760 2627 c0 -9 4 -18 9 -21 5 -4 8 1 7 9 -3 21 -16 31 -16 12z"/>
<path d="M3208 3947 c7 -8 8 -18 4 -22 -4 -5 -1 -5 6 -1 17 10 15 23 -4 30
-13 5 -14 4 -6 -7z"/>
<path d="M3516 3938 c3 -5 10 -6 15 -3 13 9 11 12 -6 12 -8 0 -12 -4 -9 -9z"/>
<path d="M3556 3871 c-3 -4 1 -17 9 -27 15 -19 15 -19 8 0 -5 15 -3 17 8 11
12 -8 12 -6 0 8 -15 19 -18 20 -25 8z"/>
<path d="M3273 3863 c4 -3 1 -13 -6 -22 -11 -14 -10 -14 5 -2 16 12 16 31 1
31 -4 0 -3 -3 0 -7z"/>
<path d="M2255 3841 c-3 -5 -2 -12 3 -15 5 -3 9 1 9 9 0 17 -3 19 -12 6z"/>
<path d="M2213 3815 c0 -8 4 -12 9 -9 5 3 6 10 3 15 -9 13 -12 11 -12 -6z"/>
<path d="M3615 3811 c-3 -5 -2 -12 3 -15 5 -3 9 1 9 9 0 17 -3 19 -12 6z"/>
<path d="M3580 3801 c0 -5 7 -14 15 -21 10 -9 15 -9 15 -1 0 6 -5 11 -11 11
-5 0 -7 5 -4 10 3 6 1 10 -4 10 -6 0 -11 -4 -11 -9z"/>
<path d="M3270 3791 c0 -5 5 -13 10 -16 6 -3 10 -2 10 4 0 5 -4 13 -10 16 -5
3 -10 2 -10 -4z"/>
<path d="M2236 3779 c3 -5 0 -9 -7 -9 -7 0 -9 -3 -6 -6 4 -4 13 -2 20 4 8 7
16 11 18 9 2 -1 3 0 1 2 -1 3 -9 6 -17 7 -8 1 -13 -2 -9 -7z"/>
<path d="M2170 3765 c0 -7 30 -13 34 -7 3 4 -4 9 -15 9 -10 1 -19 0 -19 -2z"/>
<path d="M3626 3756 c5 -14 4 -17 -5 -11 -11 6 -11 3 0 -16 7 -13 11 -25 10
-27 -2 -2 -1 -5 1 -7 2 -2 4 11 3 30 0 18 -4 37 -8 41 -4 5 -5 0 -1 -10z"/>
<path d="M2170 3735 c0 -8 4 -15 10 -15 5 0 7 7 4 15 -4 8 -8 15 -10 15 -2 0
-4 -7 -4 -15z"/>
<path d="M2233 3735 c0 -8 4 -12 9 -9 4 3 8 9 8 15 0 5 -4 9 -8 9 -5 0 -9 -7
-9 -15z"/>
<path d="M2190 3710 c-8 -5 -10 -10 -5 -10 6 0 17 5 25 10 8 5 11 10 5 10 -5
0 -17 -5 -25 -10z"/>
<path d="M4194 3709 c-3 -6 -2 -15 3 -20 5 -5 9 -1 9 11 0 23 -2 24 -12 9z"/>
<path d="M3646 3674 c-4 -10 1 -25 10 -35 17 -19 34 -17 34 4 0 7 -4 6 -10 -3
-9 -14 -14 -7 -11 13 1 5 -4 5 -10 1 -8 -4 -9 0 -4 15 7 25 0 29 -9 5z"/>
<path d="M3675 3590 c-3 -6 1 -7 9 -4 18 7 21 14 7 14 -6 0 -13 -4 -16 -10z"/>
<path d="M2150 3580 c0 -5 5 -10 11 -10 5 0 7 5 4 10 -3 6 -8 10 -11 10 -2 0
-4 -4 -4 -10z"/>
<path d="M3695 3572 c-13 -9 -13 -27 -1 -39 5 -5 6 -3 2 5 -4 6 -3 12 2 12 5
0 9 7 9 15 0 8 -1 15 -1 15 -1 0 -6 -4 -11 -8z"/>
<path d="M3266 3562 c-3 -6 -1 -14 5 -17 15 -10 25 3 12 16 -7 7 -13 7 -17 1z"/>
<path d="M4294 3562 c4 -3 14 -7 22 -8 9 -1 13 0 10 4 -4 3 -14 7 -22 8 -9 1
-13 0 -10 -4z"/>
<path d="M3705 3520 c-3 -6 1 -7 9 -4 18 7 21 14 7 14 -6 0 -13 -4 -16 -10z"/>
<path d="M4324 3453 c3 -16 16 -22 16 -8 0 3 0 10 0 15 0 6 -4 10 -9 10 -5 0
-8 -8 -7 -17z"/>
<path d="M2040 3440 c-12 -8 -12 -10 -1 -10 11 0 11 -3 1 -15 -9 -10 -9 -15
-1 -15 6 0 11 5 11 11 0 5 4 8 9 5 5 -4 8 1 7 9 -3 21 -10 25 -26 15z"/>
<path d="M3716 3443 c-3 -3 -2 -11 2 -17 4 -6 7 -14 7 -18 0 -19 18 -11 21 9
3 20 -17 38 -30 26z"/>
<path d="M4345 3421 c-6 -11 9 -23 19 -14 9 9 7 23 -3 23 -6 0 -12 -4 -16 -9z"/>
<path d="M3745 3380 c-10 -11 -16 -20 -14 -21 2 0 12 -2 22 -4 13 -3 15 0 8 9
-7 9 -7 16 1 24 7 7 10 12 7 12 -3 0 -14 -9 -24 -20z"/>
<path d="M4340 3379 c0 -5 5 -7 10 -4 6 3 10 8 10 11 0 2 -4 4 -10 4 -5 0 -10
-5 -10 -11z"/>
<path d="M3793 3283 c4 -3 1 -13 -6 -22 -11 -14 -10 -14 5 -2 16 12 16 31 1
31 -4 0 -3 -3 0 -7z"/>
<path d="M3269 3243 c-13 -16 -12 -17 4 -4 16 13 21 21 13 21 -2 0 -10 -8 -17
-17z"/>
<path d="M1990 3230 c0 -5 5 -10 11 -10 5 0 7 5 4 10 -3 6 -8 10 -11 10 -2 0
-4 -4 -4 -10z"/>
<path d="M3199 3126 c-1 -3 -2 -9 -3 -13 -1 -5 -4 -12 -8 -18 -3 -6 5 -11 20
-11 15 -1 21 1 15 3 -7 3 -13 9 -13 14 0 6 4 8 9 5 4 -3 16 0 26 8 15 11 16
13 1 13 -9 0 -16 -5 -16 -10 0 -5 -7 -4 -15 3 -8 7 -16 10 -16 6z"/>
<path d="M4390 3126 c0 -2 7 -7 16 -10 8 -3 12 -2 9 4 -6 10 -25 14 -25 6z"/>
<path d="M3788 3113 c7 -3 16 -2 19 1 4 3 -2 6 -13 5 -11 0 -14 -3 -6 -6z"/>
<path d="M3750 3102 c0 -4 8 -12 18 -19 15 -9 19 -8 19 3 0 7 -4 11 -9 8 -4
-3 -8 0 -8 5 0 6 -4 11 -10 11 -5 0 -10 -3 -10 -8z"/>
<path d="M4412 3060 c0 -14 2 -19 5 -12 2 6 2 18 0 25 -3 6 -5 1 -5 -13z"/>
<path d="M3169 3036 c6 -7 7 -17 3 -22 -4 -4 0 -3 9 4 9 6 20 9 25 5 5 -4 3
-1 -3 7 -16 18 -49 24 -34 6z"/>
<path d="M3182 3003 c-6 -2 -10 -8 -7 -13 3 -5 -6 -17 -20 -28 -23 -18 -24
-23 -14 -46 7 -14 17 -26 23 -26 6 0 5 5 -2 12 -14 14 -16 52 -3 43 10 -6 24
11 28 34 1 8 8 18 15 22 14 9 1 11 -20 2z"/>
<path d="M3189 2943 c-13 -16 -12 -17 4 -4 9 7 17 15 17 17 0 8 -8 3 -21 -13z"/>
<path d="M4395 2949 c-4 -6 -5 -12 -2 -15 2 -3 7 2 10 11 7 17 1 20 -8 4z"/>
<path d="M1222 2854 c-12 -25 -64 -118 -115 -207 -113 -198 -159 -293 -197
-405 -37 -114 -41 -137 -45 -267 -4 -127 17 -241 61 -345 31 -72 123 -206 178
-259 19 -19 32 -39 29 -44 -3 -6 -2 -7 4 -4 5 3 16 -3 23 -14 8 -10 19 -19 26
-19 6 0 21 -13 34 -30 12 -16 26 -28 30 -25 3 2 14 -4 22 -14 12 -15 13 -22 5
-32 -7 -8 -4 -7 7 1 15 12 20 12 23 2 3 -6 9 -9 15 -6 5 3 12 -3 15 -15 3 -12
10 -21 15 -21 5 0 6 5 2 12 -4 7 -3 8 4 4 7 -4 12 -14 12 -22 0 -8 5 -14 11
-14 5 0 7 6 3 13 -4 6 2 4 14 -6 11 -11 19 -24 18 -30 -2 -7 -1 -9 1 -4 3 4
12 7 21 7 15 0 15 -2 2 -11 -12 -8 -12 -9 5 -7 11 1 46 -13 78 -31 58 -34 71
-45 40 -35 -16 5 -16 4 0 -6 10 -7 21 -9 24 -6 3 3 15 0 27 -6 11 -7 26 -13
31 -13 6 0 9 -8 9 -18 -2 -13 1 -15 11 -7 9 8 17 7 27 -2 7 -7 20 -14 28 -16
8 -2 20 -8 25 -14 6 -6 2 -6 -12 1 -12 6 -24 7 -27 3 -5 -8 8 -12 47 -13 9 0
17 -7 17 -15 0 -8 -4 -13 -9 -9 -5 3 -12 1 -15 -4 -4 -5 1 -8 10 -7 8 1 20 9
25 17 7 11 9 11 9 1 0 -8 5 -10 12 -6 7 5 9 2 6 -8 -5 -11 0 -14 18 -10 26 5
31 -6 12 -27 -7 -8 -1 -6 15 4 24 16 27 16 21 1 -3 -9 -1 -16 5 -16 6 0 11 6
11 13 0 6 9 -3 20 -21 22 -35 37 -45 20 -12 -10 19 -10 20 9 8 11 -6 17 -16
14 -22 -4 -5 1 -7 11 -3 10 4 19 1 23 -9 3 -8 11 -13 18 -10 16 6 67 -28 58
-39 -5 -4 0 -5 9 -2 10 3 23 1 30 -6 8 -7 20 -13 27 -15 8 -2 33 -16 56 -32
23 -16 45 -26 48 -23 4 3 9 -2 13 -11 3 -9 9 -14 13 -12 4 3 13 0 21 -6 12 -8
12 -9 -2 -4 -10 3 -18 1 -18 -4 0 -6 11 -10 25 -10 14 0 25 -5 25 -10 0 -6 3
-9 8 -8 12 5 82 -41 82 -53 0 -7 3 -10 6 -6 7 7 76 -46 138 -106 22 -20 43
-37 48 -37 5 0 6 -4 3 -10 -3 -5 2 -10 11 -10 10 0 14 -3 11 -7 -4 -3 3 -13
14 -21 17 -12 18 -16 8 -24 -11 -7 -10 -8 3 -6 19 3 85 -85 117 -156 20 -46
34 -56 47 -34 4 6 3 8 -3 5 -16 -10 -54 75 -41 91 8 9 7 11 -7 5 -15 -5 -17
-3 -12 11 4 9 3 15 -2 12 -8 -5 -19 11 -21 32 -1 4 -8 11 -16 15 -8 4 -14 15
-14 22 0 8 -4 15 -10 15 -5 0 -10 6 -10 13 0 7 -16 32 -36 55 -21 25 -32 47
-28 54 4 7 4 10 -1 6 -4 -4 -14 -3 -22 3 -16 14 -18 43 -1 33 7 -4 8 -3 4 5
-4 6 -12 8 -18 5 -12 -8 -79 67 -71 80 3 5 2 6 -4 3 -9 -6 -35 17 -42 38 -2 6
-13 17 -25 24 -24 17 -51 51 -51 66 0 6 -7 10 -15 10 -8 1 -14 7 -12 14 1 7
-2 10 -7 7 -5 -4 -16 3 -24 14 -7 11 -17 17 -22 12 -4 -4 -4 4 -1 18 4 14 4
20 -1 13 -11 -15 -45 9 -41 28 2 7 -3 14 -9 15 -7 1 -17 2 -22 3 -5 0 -13 10
-16 22 -4 11 -9 18 -12 16 -6 -7 -48 35 -48 48 0 6 -5 10 -10 10 -17 0 -85 67
-78 78 3 6 1 7 -5 3 -7 -4 -41 22 -84 63 -39 39 -76 71 -82 71 -6 0 -4 5 4 10
13 8 12 10 -3 10 -21 0 -80 54 -70 64 4 3 1 6 -5 6 -7 0 -43 30 -79 66 -37 36
-59 63 -48 59 11 -3 9 0 -5 7 -29 14 -41 29 -34 40 3 4 -3 5 -12 1 -11 -4 -15
-2 -11 4 4 6 -5 18 -19 28 -14 9 -23 22 -21 30 3 7 -1 12 -11 11 -10 0 -16 6
-16 16 1 10 -3 16 -10 15 -6 -1 -10 4 -8 11 1 8 -1 11 -6 8 -5 -3 -16 4 -25
15 -9 10 -13 19 -9 19 4 0 -1 5 -10 11 -10 5 -18 17 -18 25 0 8 -3 13 -7 11
-5 -3 -17 7 -27 21 -11 14 -14 22 -8 18 6 -3 14 -2 17 4 4 6 3 10 -2 9 -18 -3
-33 2 -33 11 0 5 8 7 18 3 9 -3 14 -3 10 1 -3 4 -12 8 -20 10 -22 3 -39 17
-33 27 4 5 0 12 -9 15 -9 3 -12 12 -9 21 4 10 2 14 -5 9 -6 -3 -13 -2 -16 3
-4 5 -1 13 5 17 8 5 9 3 4 -7 -7 -11 -6 -12 7 -2 8 7 19 9 23 5 5 -4 5 -2 1 5
-3 6 -18 9 -33 7 -23 -4 -25 -3 -13 11 7 8 9 15 4 15 -5 0 -1 5 9 11 9 5 17
14 17 19 0 6 -9 2 -19 -7 -11 -9 -17 -21 -14 -26 3 -6 1 -7 -6 -3 -6 4 -9 12
-6 17 4 5 2 9 -2 9 -16 0 -53 89 -41 96 7 5 8 3 3 -6 -5 -9 -4 -11 4 -6 6 4 9
12 5 17 -3 5 -9 7 -14 4 -5 -3 -11 -1 -14 4 -3 5 6 12 21 16 21 5 24 8 13 15
-9 5 -19 5 -26 -1 -9 -7 -16 -4 -24 12 -8 14 -8 19 -1 15 6 -4 11 0 11 8 0 10
6 13 15 10 8 -4 15 -2 15 3 0 12 -33 13 -41 1 -3 -5 -9 -2 -12 7 -4 9 -3 13 3
10 6 -3 10 1 10 10 0 10 -5 13 -12 9 -7 -4 -10 -3 -5 1 4 5 0 19 -8 32 -15 23
-15 23 4 11 11 -6 18 -15 16 -19 -3 -3 4 -14 14 -23 17 -15 19 -15 32 1 13 16
12 17 -3 5 -10 -8 -19 -9 -22 -3 -4 5 2 15 11 21 15 10 15 11 1 6 -23 -7 -30
4 -15 23 11 14 10 14 -5 2 -15 -11 -19 -11 -24 3 -3 9 -9 14 -13 12 -4 -3 -8
4 -8 15 -1 10 3 19 9 19 6 0 8 -3 5 -7 -11 -10 13 -32 29 -26 12 4 11 8 -6 20
-17 12 -19 18 -9 29 6 8 7 14 2 14 -14 0 -10 43 4 47 8 3 11 -3 8 -16 -2 -11
0 -23 4 -25 4 -3 7 7 6 21 0 15 -6 28 -13 31 -7 2 -10 8 -6 13 3 5 0 9 -5 9
-6 0 -11 -5 -11 -11 0 -5 -6 -7 -12 -3 -9 5 -9 2 1 -9 9 -12 10 -17 2 -17 -7
0 -9 -5 -4 -12 4 -7 9 -22 10 -33 3 -18 2 -19 -8 -2 -6 10 -15 14 -22 10 -7
-4 -6 0 2 10 11 14 11 17 0 17 -11 0 -11 3 1 11 11 7 12 12 3 15 -14 6 16 42
32 39 6 -1 7 0 3 2 -5 3 -8 11 -8 19 0 9 4 13 8 10 4 -2 9 5 9 16 2 20 1 20
-15 -3 -9 -13 -16 -27 -15 -31 1 -3 -4 -11 -12 -18 -11 -9 -13 -7 -10 7 1 10
-3 25 -9 33 -10 13 -9 13 8 0 18 -14 19 -13 13 3 -4 10 -3 16 2 13 12 -8 22
20 15 39 -5 11 -1 14 12 9 11 -3 15 -2 9 3 -9 7 -12 28 -5 36 8 7 6 54 -2 64
-6 8 -3 15 12 23 16 8 19 15 11 24 -6 7 -7 16 -3 21 4 4 -3 3 -14 -3 -21 -11
-34 -7 -34 10 0 4 3 7 8 7 20 -3 32 2 32 16 0 8 -5 15 -11 15 -5 0 -8 -4 -4
-9 3 -5 1 -12 -4 -15 -5 -4 -12 3 -16 14 -3 11 -11 20 -16 20 -6 0 -7 6 -3 12
5 7 9 28 11 47 2 19 12 68 23 109 11 41 19 76 17 78 -2 2 -13 -17 -25 -42z
m-12 -235 c0 -5 -4 -9 -8 -9 -5 0 -9 7 -9 15 0 8 4 12 9 9 4 -3 8 -9 8 -15z
m23 -43 c3 3 11 3 17 -1 8 -5 4 -12 -10 -22 -14 -10 -18 -19 -12 -26 12 -16
12 -49 -1 -64 -5 -7 -6 -13 -2 -13 4 0 2 -7 -5 -15 -6 -8 -9 -19 -6 -24 4 -5
1 -13 -5 -17 -7 -4 -9 -3 -6 3 4 6 0 13 -8 17 -8 3 -15 11 -15 18 0 10 2 10 9
-1 5 -8 11 -9 15 -3 3 6 2 13 -4 17 -5 3 -10 14 -9 23 0 14 2 14 8 -2 5 -13
10 -16 14 -8 4 6 -3 20 -15 32 -21 19 -21 21 -3 14 20 -7 20 -7 2 14 -12 13
-16 26 -11 34 5 7 7 22 5 33 -3 19 -2 19 16 2 11 -9 22 -14 26 -11z"/>
<path d="M1205 2573 c3 -3 0 -12 -6 -20 -9 -10 -8 -18 5 -31 9 -10 13 -21 10
-24 -3 -3 -1 -9 5 -12 6 -4 8 2 4 16 -3 13 -6 33 -7 45 0 12 -4 24 -8 27 -5 3
-6 3 -3 -1z"/>
<path d="M1855 2879 c-4 -6 -4 -13 -1 -16 3 -4 6 -1 6 6 0 7 5 9 12 5 7 -4 8
-3 4 4 -9 15 -13 15 -21 1z"/>
<path d="M3704 2879 c-3 -6 -1 -16 4 -21 8 -8 11 -5 9 11 -1 24 -3 25 -13 10z"/>
<path d="M4373 2875 c-3 -9 -3 -18 -1 -21 3 -3 8 4 11 16 6 23 -1 27 -10 5z"/>
<path d="M3750 2820 c0 -5 5 -10 11 -10 5 0 7 5 4 10 -3 6 -8 10 -11 10 -2 0
-4 -4 -4 -10z"/>
<path d="M1826 2743 c-6 -14 -5 -15 5 -6 7 7 10 15 7 18 -3 3 -9 -2 -12 -12z"/>
<path d="M1235 2721 c-3 -5 -2 -12 3 -15 5 -3 9 1 9 9 0 17 -3 19 -12 6z"/>
<path d="M1270 2720 c0 -5 5 -10 11 -10 5 0 7 5 4 10 -3 6 -8 10 -11 10 -2 0
-4 -4 -4 -10z"/>
<path d="M1256 2678 c3 -4 11 -5 19 -1 21 7 19 12 -4 10 -11 0 -18 -5 -15 -9z"/>
<path d="M4275 2679 c-4 -6 -5 -12 -2 -15 2 -3 7 2 10 11 7 17 1 20 -8 4z"/>
<path d="M1231 2660 c-9 -5 -4 -7 13 -7 29 0 32 2 13 10 -8 3 -20 2 -26 -3z"/>
<path d="M3674 2649 c-3 -6 -2 -15 3 -20 5 -5 9 -1 9 11 0 23 -2 24 -12 9z"/>
<path d="M4250 2639 c0 -5 5 -7 10 -4 6 3 10 8 10 11 0 2 -4 4 -10 4 -5 0 -10
-5 -10 -11z"/>
<path d="M1270 2600 c0 -5 5 -10 11 -10 5 0 7 5 4 10 -3 6 -8 10 -11 10 -2 0
-4 -4 -4 -10z"/>
<path d="M4220 2586 c0 -2 8 -10 18 -17 15 -13 16 -12 3 4 -13 16 -21 21 -21
13z"/>
<path d="M3640 2560 c-9 -6 -10 -10 -3 -10 6 0 15 5 18 10 8 12 4 12 -15 0z"/>
<path d="M4156 2548 c3 -5 10 -6 15 -3 13 9 11 12 -6 12 -8 0 -12 -4 -9 -9z"/>
<path d="M2986 2541 c-3 -5 6 -8 20 -8 19 0 22 2 13 8 -18 11 -26 11 -33 0z"/>
<path d="M4150 2519 c0 -5 5 -7 10 -4 6 3 10 8 10 11 0 2 -4 4 -10 4 -5 0 -10
-5 -10 -11z"/>
<path d="M3590 2480 c-9 -6 -10 -10 -3 -10 6 0 15 5 18 10 8 12 4 12 -15 0z"/>
<path d="M1784 2464 c-10 -8 -14 -13 -7 -10 6 4 13 1 15 -6 3 -7 7 -2 10 10 7
26 7 26 -18 6z"/>
<path d="M3575 2440 c-3 -5 -1 -10 4 -10 6 0 11 5 11 10 0 6 -2 10 -4 10 -3 0
-8 -4 -11 -10z"/>
<path d="M1774 2422 c0 -10 6 -19 13 -19 8 0 9 6 2 19 -5 10 -11 18 -12 18 -2
0 -3 -8 -3 -18z"/>
<path d="M1805 2420 c3 -5 8 -10 11 -10 2 0 4 5 4 10 0 6 -5 10 -11 10 -5 0
-7 -4 -4 -10z"/>
<path d="M3500 2395 c-7 -8 -9 -15 -4 -15 5 0 2 -6 -7 -13 -9 -7 -16 -20 -16
-29 0 -10 3 -16 5 -13 3 3 11 0 19 -6 9 -9 13 -8 13 0 0 6 -4 11 -10 11 -5 0
-10 7 -10 16 0 13 3 14 14 5 11 -9 16 -9 22 0 4 7 3 9 -4 5 -6 -3 -13 -2 -17
4 -3 5 -2 10 2 10 5 0 9 9 9 20 0 24 0 24 -16 5z"/>
<path d="M3981 2404 c3 -20 -1 -35 -10 -30 -5 3 -14 -1 -21 -9 -7 -8 -17 -12
-23 -8 -5 3 -7 1 -3 -5 3 -5 0 -13 -6 -15 -7 -3 -3 -6 9 -6 12 -1 25 4 28 9 4
6 11 7 17 4 7 -4 8 -2 4 4 -4 7 -2 12 3 12 6 0 11 8 11 18 0 14 4 12 21 -8 16
-19 18 -20 10 -4 -11 22 -43 53 -40 38z m-11 -38 c0 -2 -8 -10 -17 -17 -16
-13 -17 -12 -4 4 13 16 21 21 21 13z"/>
<path d="M2919 2398 c-8 -18 -3 -48 8 -52 10 -4 11 -1 3 14 -13 25 -13 33 3
23 16 -10 41 -14 32 -5 -4 4 -10 7 -13 7 -4 0 -13 4 -19 8 -7 5 -14 7 -14 5z"/>
<path d="M1780 2355 c-9 -10 -9 -15 -1 -15 6 0 11 5 11 11 0 5 5 7 10 4 6 -3
10 -1 10 4 0 16 -16 13 -30 -4z"/>
<path d="M3950 2311 c0 -6 4 -13 10 -16 6 -3 7 1 4 9 -7 18 -14 21 -14 7z"/>
<path d="M3885 2300 c-3 -5 -1 -10 4 -10 6 0 11 5 11 10 0 6 -2 10 -4 10 -3 0
-8 -4 -11 -10z"/>
<path d="M3419 2251 c-28 -38 -31 -57 -13 -71 10 -10 12 -8 9 9 -2 13 4 26 17
36 12 8 18 18 14 22 -4 4 -11 1 -16 -7 -6 -9 -10 -10 -10 -3 0 7 8 16 17 22
10 5 15 12 11 16 -3 4 -16 -7 -29 -24z"/>
<path d="M1786 2254 c-3 -9 -3 -21 1 -27 4 -7 8 -14 8 -17 0 -3 8 -16 18 -30
l18 -25 -5 25 c-2 14 -5 25 -6 25 -2 0 -11 38 -12 53 -2 17 -15 15 -22 -4z
m18 -20 c3 -8 2 -12 -4 -9 -6 3 -10 10 -10 16 0 14 7 11 14 -7z"/>
<path d="M3460 2266 c0 -2 8 -10 18 -17 15 -13 16 -12 3 4 -13 16 -21 21 -21
13z"/>
<path d="M3760 2230 c-8 -5 -18 -6 -22 -4 -4 3 -8 0 -8 -5 0 -6 -5 -10 -12 -8
-7 1 -12 -2 -13 -8 -1 -19 -17 -35 -28 -29 -8 5 -8 3 1 -7 16 -17 16 -37 0
-21 -7 7 -17 12 -22 12 -6 0 0 -7 13 -17 22 -15 23 -17 6 -29 -9 -7 -24 -10
-32 -7 -11 4 -14 1 -12 -12 2 -10 10 -20 17 -21 7 -1 8 0 2 3 -19 9 -10 20 16
17 14 -1 23 0 20 3 -3 4 3 13 14 20 14 10 19 21 15 34 -5 15 -3 17 11 12 13
-5 16 -3 11 9 -4 12 2 17 21 21 25 5 25 4 7 -9 -17 -13 -17 -14 -1 -14 10 0
14 -4 10 -12 -4 -7 -3 -8 4 -4 6 4 9 13 6 21 -4 9 4 19 20 26 15 7 25 17 23
22 -4 13 -50 18 -67 7z m50 -14 c-4 -4 -22 -9 -38 -11 -38 -3 -54 -13 -46 -28
4 -7 4 -9 -1 -5 -4 4 -15 2 -24 -4 -12 -10 -12 -7 2 8 9 11 15 23 12 26 -3 2
2 5 10 6 8 1 22 3 30 4 8 1 15 5 15 9 0 4 11 6 24 5 14 0 21 -5 16 -10z m-100
-76 c0 -5 -5 -10 -11 -10 -5 0 -7 5 -4 10 3 6 8 10 11 10 2 0 4 -4 4 -10z"/>
<path d="M1255 2200 c3 -5 8 -10 11 -10 2 0 4 5 4 10 0 6 -5 10 -11 10 -5 0
-7 -4 -4 -10z"/>
<path d="M3744 2152 c-13 -8 -15 -44 -2 -36 5 4 7 9 4 12 -3 3 -1 11 5 19 13
14 10 17 -7 5z"/>
<path d="M3650 2130 c0 -5 5 -10 11 -10 5 0 7 5 4 10 -3 6 -8 10 -11 10 -2 0
-4 -4 -4 -10z"/>
<path d="M1821 2116 c-8 -10 -9 -16 -1 -21 6 -3 7 -11 4 -17 -4 -5 4 -4 17 3
13 7 28 12 32 11 5 -1 5 3 2 9 -5 8 -10 8 -18 0 -16 -16 -31 -13 -18 3 7 8 8
17 3 20 -6 3 -15 -1 -21 -8z"/>
<path d="M2765 2070 c-3 -6 -4 -14 0 -19 3 -5 -6 -18 -19 -29 -17 -13 -22 -22
-15 -29 7 -7 2 -17 -17 -32 -15 -11 -23 -21 -19 -21 4 0 -2 -16 -13 -35 l-21
-34 20 -23 c11 -13 18 -17 14 -10 -3 6 0 12 7 12 7 1 2 7 -12 15 -29 17 -9 20
22 4 16 -9 19 -8 13 2 -6 9 -3 11 11 6 18 -7 18 -6 2 6 -10 8 -14 18 -10 22 4
5 2 5 -4 2 -15 -9 -27 20 -12 29 7 4 8 3 4 -4 -4 -7 -2 -12 4 -12 7 0 10 6 7
13 -6 16 12 49 23 42 5 -3 7 6 4 21 -3 14 -1 23 5 20 5 -3 14 1 20 8 8 10 9
16 1 21 -5 3 -10 11 -10 17 0 6 6 6 15 -2 9 -7 17 -11 20 -9 2 3 -4 10 -15 17
-12 7 -21 8 -25 2z m-55 -175 c11 -13 10 -14 -4 -9 -9 3 -16 10 -16 15 0 13 6
11 20 -6z"/>
<path d="M3610 2066 c0 -2 7 -7 16 -10 8 -3 12 -2 9 4 -6 10 -25 14 -25 6z"/>
<path d="M3597 2033 c3 -7 6 -13 8 -13 2 0 5 6 8 13 3 8 -1 14 -8 14 -7 0 -11
-6 -8 -14z"/>
<path d="M1265 2029 c-11 -16 -1 -19 13 -3 7 8 8 14 3 14 -5 0 -13 -5 -16 -11z"/>
<path d="M1870 2036 c0 -2 8 -10 18 -17 15 -13 16 -12 3 4 -13 16 -21 21 -21
13z"/>
<path d="M3620 2026 c0 -2 8 -10 18 -17 15 -13 16 -12 3 4 -13 16 -21 21 -21
13z"/>
<path d="M3267 2013 c-12 -12 -7 -22 8 -17 8 4 15 10 15 15 0 11 -14 12 -23 2z"/>
<path d="M1306 1977 c3 -10 9 -15 12 -12 3 3 0 11 -7 18 -10 9 -11 8 -5 -6z"/>
<path d="M1290 1942 c1 -4 8 -18 16 -32 9 -15 13 -17 10 -6 -4 10 -2 24 3 30
7 8 4 12 -10 13 -10 1 -19 -1 -19 -5z"/>
<path d="M1881 1925 c0 -5 6 -18 14 -29 13 -18 14 -18 12 2 0 11 -4 19 -8 16
-4 -2 -10 2 -12 8 -3 7 -6 9 -6 3z"/>
<path d="M3260 1899 c0 -5 5 -7 10 -4 6 3 10 8 10 11 0 2 -4 4 -10 4 -5 0 -10
-5 -10 -11z"/>
<path d="M1936 1867 c3 -10 9 -15 12 -12 3 3 0 11 -7 18 -10 9 -11 8 -5 -6z"/>
<path d="M2710 1826 c0 -8 4 -17 9 -20 5 -4 7 3 4 14 -6 23 -13 26 -13 6z"/>
<path d="M1918 1821 c7 -4 12 -12 11 -17 -1 -5 -1 -16 0 -24 1 -12 4 -11 12 3
6 9 15 14 21 11 7 -4 8 -2 4 5 -4 6 -12 8 -18 5 -7 -5 -9 -2 -6 7 4 10 -1 15
-15 17 -15 1 -18 -1 -9 -7z"/>
<path d="M1380 1786 c0 -2 8 -10 18 -17 15 -13 16 -12 3 4 -13 16 -21 21 -21
13z"/>
<path d="M1940 1741 c0 -6 4 -12 8 -15 5 -3 9 1 9 9 0 8 -4 15 -9 15 -4 0 -8
-4 -8 -9z"/>
<path d="M1970 1740 c0 -5 5 -10 11 -10 5 0 7 5 4 10 -3 6 -8 10 -11 10 -2 0
-4 -4 -4 -10z"/>
<path d="M2642 1713 c8 -10 7 -13 -2 -13 -8 0 -11 -3 -7 -6 3 -3 14 -1 24 5
14 8 14 10 3 11 -13 0 -13 1 0 10 12 7 10 9 -7 7 -17 -1 -19 -4 -11 -14z"/>
<path d="M2010 1699 c0 -5 5 -7 10 -4 6 3 10 8 10 11 0 2 -4 4 -10 4 -5 0 -10
-5 -10 -11z"/>
<path d="M2668 1683 c7 -3 16 -2 19 1 4 3 -2 6 -13 5 -11 0 -14 -3 -6 -6z"/>
<path d="M2616 1655 c-9 -14 -12 -25 -7 -25 5 0 7 -15 6 -32 -2 -18 -4 -33 -5
-33 -1 0 -3 -11 -4 -24 l-3 -23 18 23 c9 12 15 29 12 36 -3 7 1 13 8 13 12 0
12 2 1 9 -16 10 -11 47 5 44 6 -1 9 6 6 17 -7 27 -17 25 -37 -5z m15 -8 c-10
-9 -11 -8 -5 6 3 10 9 15 12 12 3 -3 0 -11 -7 -18z"/>
<path d="M1513 1625 c0 -8 4 -12 9 -9 5 3 6 10 3 15 -9 13 -12 11 -12 -6z"/>
<path d="M2000 1630 c-8 -5 -12 -12 -9 -15 4 -3 12 1 19 10 14 17 11 19 -10 5z"/>
<path d="M3090 1595 c-14 -8 -20 -15 -15 -15 6 0 2 -7 -8 -14 -16 -13 -16 -14
0 -27 15 -12 16 -12 10 4 -4 11 -3 16 3 12 6 -3 10 3 10 15 0 12 3 19 8 17 4
-3 13 1 20 9 16 18 4 17 -28 -1z"/>
<path d="M2032 1595 c4 -4 3 -14 -4 -22 -8 -11 -7 -12 6 -7 19 7 21 20 4 30
-7 4 -10 4 -6 -1z"/>
<path d="M2590 1580 c0 -5 5 -10 10 -10 6 0 10 5 10 10 0 6 -4 10 -10 10 -5 0
-10 -4 -10 -10z"/>
<path d="M3096 1554 c-8 -20 -8 -24 2 -24 4 0 8 9 9 20 2 24 -3 26 -11 4z"/>
<path d="M2637 1543 c-10 -9 -9 -23 1 -23 5 0 9 7 9 15 0 17 -1 18 -10 8z"/>
<path d="M2065 1520 c-3 -6 1 -7 9 -4 18 7 21 14 7 14 -6 0 -13 -4 -16 -10z"/>
<path d="M2070 1461 c0 -6 4 -13 10 -16 6 -3 7 1 4 9 -7 18 -14 21 -14 7z"/>
<path d="M2616 1415 c-3 -8 -1 -15 4 -15 6 0 10 5 10 11 0 5 5 7 12 3 7 -4 8
-3 4 4 -10 16 -23 15 -30 -3z"/>
<path d="M2635 1389 c-4 -6 -5 -12 -2 -15 2 -3 7 2 10 11 7 17 1 20 -8 4z"/>
<path d="M2656 1373 c-6 -14 -5 -15 5 -6 7 7 10 15 7 18 -3 3 -9 -2 -12 -12z"/>
<path d="M2625 1329 c2 -41 15 -50 45 -34 24 13 24 14 3 12 -13 -1 -23 -5 -23
-10 0 -4 -5 -5 -11 -1 -8 4 -8 9 0 17 15 15 14 34 -2 40 -9 3 -13 -4 -12 -24z"/>
<path d="M3060 1299 c0 -5 5 -7 10 -4 6 3 10 8 10 11 0 2 -4 4 -10 4 -5 0 -10
-5 -10 -11z"/>
<path d="M2651 1266 c-9 -11 -9 -16 1 -22 7 -4 10 -4 6 1 -4 4 -3 14 3 22 6 7
9 13 6 13 -2 0 -10 -6 -16 -14z"/>
<path d="M2675 1259 c-4 -6 -5 -12 -2 -15 2 -3 7 2 10 11 7 17 1 20 -8 4z"/>
<path d="M2695 1190 c-4 -6 -11 -8 -16 -5 -5 4 -6 -2 -2 -11 4 -11 8 -13 11
-6 2 7 7 10 11 8 4 -3 8 1 8 9 0 18 -3 19 -12 5z"/>
<path d="M3023 1168 c7 -10 19 -18 27 -18 12 1 11 3 -3 11 -9 6 -15 14 -13 18
3 4 -1 8 -8 8 -11 0 -12 -4 -3 -19z"/>
<path d="M3011 1144 c0 -11 3 -14 6 -6 3 7 2 16 -1 19 -3 4 -6 -2 -5 -13z"/>
<path d="M2695 1140 c3 -5 8 -10 11 -10 2 0 4 5 4 10 0 6 -5 10 -11 10 -5 0
-7 -4 -4 -10z"/>
<path d="M3030 1130 c0 -6 7 -10 15 -10 8 0 15 2 15 4 0 2 -7 6 -15 10 -8 3
-15 1 -15 -4z"/>
<path d="M3010 1106 c0 -2 7 -7 16 -10 8 -3 12 -2 9 4 -6 10 -25 14 -25 6z"/>
<path d="M1454 1078 c-4 -7 -3 -10 1 -5 5 4 17 0 27 -10 10 -9 20 -14 22 -12
2 2 -6 12 -19 22 -18 13 -25 14 -31 5z"/>
<path d="M2006 1078 c3 -5 10 -6 15 -3 13 9 11 12 -6 12 -8 0 -12 -4 -9 -9z"/>
<path d="M1516 1042 c-3 -5 1 -9 9 -9 8 0 12 4 9 9 -3 4 -7 8 -9 8 -2 0 -6 -4
-9 -8z"/>
<path d="M1573 985 c0 -8 4 -12 9 -9 5 3 6 10 3 15 -9 13 -12 11 -12 -6z"/>
<path d="M1635 979 c-4 -6 -5 -12 -2 -15 2 -3 7 2 10 11 7 17 1 20 -8 4z"/>
<path d="M1673 955 c0 -8 4 -15 9 -15 4 0 8 4 8 9 0 6 -4 12 -8 15 -5 3 -9 -1
-9 -9z"/>
<path d="M2019 763 c-7 -10 -9 -15 -5 -11 5 4 16 2 25 -5 14 -10 14 -10 4 4
-7 9 -10 19 -6 22 3 4 4 7 1 7 -3 0 -12 -8 -19 -17z"/>
<path d="M2080 726 c0 -2 7 -7 16 -10 8 -3 12 -2 9 4 -6 10 -25 14 -25 6z"/>
<path d="M2195 661 c-3 -5 -2 -12 3 -15 5 -3 9 1 9 9 0 17 -3 19 -12 6z"/>
<path d="M2314 599 c-4 -7 -3 -9 4 -5 6 3 15 -2 21 -11 6 -10 11 -13 11 -7 0
20 -27 37 -36 23z"/>
<path d="M2430 498 c0 -4 4 -8 9 -8 6 0 12 4 15 8 3 5 -1 9 -9 9 -8 0 -15 -4
-15 -9z"/>
<path d="M2473 485 c0 -8 4 -15 9 -15 4 0 8 4 8 9 0 6 -4 12 -8 15 -5 3 -9 -1
-9 -9z"/>
<path d="M2615 461 c-3 -5 -2 -12 3 -15 5 -3 9 1 9 9 0 17 -3 19 -12 6z"/>
</g>
</svg>
