<?xml version="1.0" encoding="utf-8"?>
<!DOCTYPE svg PUBLIC "-//W3C//DTD SVG 1.1//EN" "http://www.w3.org/Graphics/SVG/1.1/DTD/svg11.dtd">
<svg version="1.1" id="torchRunner" xmlns="http://www.w3.org/2000/svg" xmlns:xlink="http://www.w3.org/1999/xlink" x="0px" y="0px" viewBox="0 0 1000 1000" enable-background="new 0 0 1000 1000" xml:space="preserve"><g><circle class="cls_1" cx="385.2" cy="231.6" r="84.7"/><path class="cls_1" d="M881.2,912.2c-65.7-111.6-131.3-223.1-197-334.7c-1.7-2.8-3.4-5.2-5.3-7.5c-1.3-3.2-2.7-6.5-4.4-9.7c-31-60.4-63.5-120.1-97.3-179c66.2-21.1,126.7-1.8,174.3,64.8c38.7,54.2,129.3,2.2,90.1-52.7C749.4,264.4,612,232.3,474.5,314c-5.7,3.4-10.3,7.4-14,11.7c-2.1,0.8-4.1,1.7-6.2,2.7c-5.6,1.1-11.3,3.3-17.1,6.7c-85.5,50.8-165,41.2-224.4-42c-9.7-13.5-22.6-20.5-35.9-22.4l1.5-60.1h-35.6l1.6,64.9c-26.1,11.6-42.9,40.5-21.7,70.2c75.7,106.1,182,146.5,293.9,112.2C451.6,518.2,485,579.5,517,641.5c-47.3,24.2-91.1,54.3-131.8,89.8c-24,21-20.1,48.4-3.9,66.9c3.9,8.4,10.5,16.2,20.6,22.2c53.9,32.4,107.7,64.7,161.6,97.1c57.8,34.7,110.2-55.6,52.7-90.1c-34.8-20.9-69.6-41.8-104.5-62.7c33.5-22.6,69.6-41.3,107.9-54.6c6.3-2.2,11.7-5.3,16.3-8.9C687.6,789,739.3,877,791.1,964.9C825.2,1022.7,915.4,970.3,881.2,912.2z"/><rect class="cls_1" x="111.2" y="153.9" width="98.9" height="42.6"/><path class="cls_1" d="M183,138.3C253.2,95,202.7,27.1,202.7,27.1c0,32.4-24.9,39.3-24.9,39.3c30.7-25.5-16-30.4,8.5-56.3c-102.5,33.1-51.1,128.3-51.1,128.3H183z"/></g></svg>
